<svg xmlns="http://www.w3.org/2000/svg" xmlns:xlink="http://www.w3.org/1999/xlink" width="968" height="1606" viewBox="0 0 968 1606">
  <defs>
    <filter id="Rectángulo_108" x="122" y="154" width="724" height="1381" filterUnits="userSpaceOnUse">
      <feOffset dy="3" input="SourceAlpha"/>
      <feGaussianBlur stdDeviation="3" result="blur"/>
      <feFlood flood-opacity="0.161"/>
      <feComposite operator="in" in2="blur"/>
      <feComposite in="SourceGraphic"/>
    </filter>
    <filter id="Trazado_60" x="89.5" y="152.5" width="750" height="1408" filterUnits="userSpaceOnUse">
      <feOffset dx="-20" dy="15" input="SourceAlpha"/>
      <feGaussianBlur stdDeviation="7.5" result="blur-2"/>
      <feFlood flood-opacity="0.161"/>
      <feComposite operator="in" in2="blur-2"/>
      <feComposite in="SourceGraphic"/>
    </filter>
    <filter id="Polígono_3" x="502" y="652" width="60" height="67" filterUnits="userSpaceOnUse">
      <feOffset dy="10" input="SourceAlpha"/>
      <feGaussianBlur stdDeviation="3" result="blur-3"/>
      <feFlood flood-opacity="0.161"/>
      <feComposite operator="in" in2="blur-3"/>
      <feComposite in="SourceGraphic"/>
    </filter>
    <filter id="Unión_18" x="602" y="664.823" width="58.282" height="41.353" filterUnits="userSpaceOnUse">
      <feOffset dy="10" input="SourceAlpha"/>
      <feGaussianBlur stdDeviation="3" result="blur-4"/>
      <feFlood flood-opacity="0.161"/>
      <feComposite operator="in" in2="blur-4"/>
      <feComposite in="SourceGraphic"/>
    </filter>
    <filter id="Unión_19" x="298.718" y="664.823" width="58.282" height="41.353" filterUnits="userSpaceOnUse">
      <feOffset dy="10" input="SourceAlpha"/>
      <feGaussianBlur stdDeviation="3" result="blur-5"/>
      <feFlood flood-opacity="0.161"/>
      <feComposite operator="in" in2="blur-5"/>
      <feComposite in="SourceGraphic"/>
    </filter>
    <filter id="Rectángulo_104" x="403" y="665" width="40" height="41" filterUnits="userSpaceOnUse">
      <feOffset dy="10" input="SourceAlpha"/>
      <feGaussianBlur stdDeviation="3" result="blur-6"/>
      <feFlood flood-opacity="0.161"/>
      <feComposite operator="in" in2="blur-6"/>
      <feComposite in="SourceGraphic"/>
    </filter>
    <filter id="Rectángulo_140" x="692" y="839" width="112" height="57" filterUnits="userSpaceOnUse">
      <feOffset dy="10" input="SourceAlpha"/>
      <feGaussianBlur stdDeviation="3" result="blur-7"/>
      <feFlood flood-opacity="0.161"/>
      <feComposite operator="in" in2="blur-7"/>
      <feComposite in="SourceGraphic"/>
    </filter>
    <clipPath id="clip-Barra_asistente_audio">
      <rect width="968" height="1606"/>
    </clipPath>
  </defs>
  <g id="Barra_asistente_audio" data-name="Barra asistente audio" clip-path="url(#clip-Barra_asistente_audio)">
    <rect width="968" height="1606" fill="#fff"/>
    <line id="Línea_60" data-name="Línea 60" x2="177" transform="translate(131.5 80.5)" fill="none" stroke="#707070" stroke-width="1"/>
    <text id="Inspector_de_audios" data-name="Inspector de audios" transform="translate(131 61)" fill="#9e9c9c" font-size="20" font-family="SegoeUI-Bold, Segoe UI" font-weight="700"><tspan x="0" y="0">Inspector de audios</tspan></text>
    <g id="Grupo_27" data-name="Grupo 27" transform="translate(-24 -12)">
      <g id="Grupo_26" data-name="Grupo 26">
        <g transform="matrix(1, 0, 0, 1, 24, 12)" filter="url(#Rectángulo_108)">
          <rect id="Rectángulo_108-2" data-name="Rectángulo 108" width="706" height="1363" transform="translate(131 160)" fill="#3b3b3b"/>
        </g>
        <g transform="matrix(1, 0, 0, 1, 24, 12)" filter="url(#Trazado_60)">
          <g id="Trazado_60-2" data-name="Trazado 60" transform="translate(132 160)" fill="#fff">
            <path d="M 700 1362.5 L 0.5 1362.5 L 0.5 5 C 0.5 2.518666744232178 2.518666744232178 0.5 5 0.5 L 704.5 0.5 L 704.5 1358 C 704.5 1360.481323242188 702.4813232421875 1362.5 700 1362.5 Z" stroke="none"/>
            <path d="M 5 1 C 2.7943115234375 1 1 2.7943115234375 1 5 L 1 1362 L 700 1362 C 702.2056884765625 1362 704 1360.205688476563 704 1358 L 704 1 L 5 1 M 5 0 L 705 0 L 705 1358 C 705 1360.761474609375 702.7613525390625 1363 700 1363 L 0 1363 L 0 5 C 0 2.238525390625 2.238525390625 0 5 0 Z" stroke="none" fill="#707070"/>
          </g>
        </g>
        <rect id="Rectángulo_109" data-name="Rectángulo 109" width="705" height="606" transform="translate(156 172)" fill="#3b3b3b" opacity="0.9"/>
        <circle id="Elipse_100" data-name="Elipse 100" cx="24" cy="24" r="24" transform="translate(193 214)" fill="#ff6e95"/>
        <g id="micro" transform="translate(199.115 221.479)">
          <path id="Trazado_31" data-name="Trazado 31" d="M15.865,19.625a4.637,4.637,0,0,0,4.641-4.656l.016-9.312a4.656,4.656,0,0,0-9.312,0v9.312A4.65,4.65,0,0,0,15.865,19.625Zm10.865-4.656H24.091a8.053,8.053,0,0,1-8.226,7.916,8.053,8.053,0,0,1-8.226-7.916H5A10.839,10.839,0,0,0,14.312,25.4V30.49h3.1V25.4A10.839,10.839,0,0,0,26.729,14.969Z" transform="translate(2.76 0.552)" fill="#b52727"/>
          <path id="Trazado_32" data-name="Trazado 32" d="M0,0H37.25V37.25H0Z" fill="none"/>
        </g>
        <g transform="matrix(1, 0, 0, 1, 24, 12)" filter="url(#Polígono_3)">
          <path id="Polígono_3-2" data-name="Polígono 3" d="M19.659,7.6a5,5,0,0,1,8.682,0L43.725,34.519A5,5,0,0,1,39.384,42H8.616a5,5,0,0,1-4.341-7.481Z" transform="translate(553 652) rotate(90)" fill="#fff"/>
        </g>
        <g transform="matrix(1, 0, 0, 1, 24, 12)" filter="url(#Unión_18)">
          <path id="Unión_18-2" data-name="Unión 18" d="M5696-1870.831v-4.5a4.939,4.939,0,0,1-2.145,2.618l-10.282,6.168a5,5,0,0,1-7.573-4.287v-12.338a5,5,0,0,1,7.573-4.287l10.282,6.168a4.939,4.939,0,0,1,2.145,2.618v-4.5a5,5,0,0,1,7.573-4.287l10.282,6.168a5,5,0,0,1,0,8.576l-10.282,6.168a4.959,4.959,0,0,1-2.564.721A5.006,5.006,0,0,1,5696-1870.831Z" transform="translate(-5065 2553)" fill="#fff"/>
        </g>
        <g transform="matrix(1, 0, 0, 1, 24, 12)" filter="url(#Unión_19)">
          <path id="Unión_19-2" data-name="Unión 19" d="M5696-1870.831v-4.5a4.939,4.939,0,0,1-2.145,2.618l-10.282,6.168a5,5,0,0,1-7.573-4.287v-12.338a5,5,0,0,1,7.573-4.287l10.282,6.168a4.939,4.939,0,0,1,2.145,2.618v-4.5a5,5,0,0,1,7.573-4.287l10.282,6.168a5,5,0,0,1,0,8.576l-10.282,6.168a4.959,4.959,0,0,1-2.564.721A5.006,5.006,0,0,1,5696-1870.831Z" transform="translate(6024 -1201) rotate(180)" fill="#fff"/>
        </g>
        <g id="Elipse_101" data-name="Elipse 101" transform="translate(508 646)" fill="none" stroke="#fff" stroke-width="1">
          <circle cx="42" cy="42" r="42" stroke="none"/>
          <circle cx="42" cy="42" r="41.5" fill="none"/>
        </g>
        <g id="Elipse_102" data-name="Elipse 102" transform="translate(623 657)" fill="none" stroke="#fff" stroke-width="1">
          <circle cx="31" cy="31" r="31" stroke="none"/>
          <circle cx="31" cy="31" r="30.5" fill="none"/>
        </g>
        <g id="Elipse_103" data-name="Elipse 103" transform="translate(384 719) rotate(180)" fill="none" stroke="#fff" stroke-width="1">
          <circle cx="31" cy="31" r="31" stroke="none"/>
          <circle cx="31" cy="31" r="30.5" fill="none"/>
        </g>
        <g id="Elipse_104" data-name="Elipse 104" transform="translate(478 719) rotate(180)" fill="none" stroke="#fff" stroke-width="1">
          <circle cx="31" cy="31" r="31" stroke="none"/>
          <circle cx="31" cy="31" r="30.5" fill="none"/>
        </g>
        <g transform="matrix(1, 0, 0, 1, 24, 12)" filter="url(#Rectángulo_104)">
          <rect id="Rectángulo_104-2" data-name="Rectángulo 104" width="22" height="22" rx="7" transform="translate(412 665)" fill="#fff"/>
        </g>
        <rect id="Rectángulo_105" data-name="Rectángulo 105" width="613" height="7" rx="3.5" transform="translate(206 604)" fill="#fff"/>
        <rect id="Rectángulo_106" data-name="Rectángulo 106" width="199" height="7" rx="3.5" transform="translate(206 604)" fill="#ff6e95"/>
        <text id="_2:08" data-name="2:08" transform="translate(206 635)" fill="#fff" font-size="15" font-family="SegoeUI, Segoe UI"><tspan x="0" y="0">2:08</tspan></text>
        <text id="_5:18" data-name="5:18" transform="translate(791 635)" fill="#fff" font-size="15" font-family="SegoeUI, Segoe UI"><tspan x="0" y="0">5:18</tspan></text>
        <path id="Unión_20" data-name="Unión 20" d="M5688.563-1874H5676v-18h33v18h-12.562l-3.937,7Z" transform="translate(-5290 2461)" fill="#ff6e95"/>
        <path id="Rectángulo_110" data-name="Rectángulo 110" d="M7,0H8a7,7,0,0,1,7,7V116a0,0,0,0,1,0,0H0a0,0,0,0,1,0,0V7A7,7,0,0,1,7,0Z" transform="translate(202 393)" fill="#ff6e95"/>
        <path id="Rectángulo_128" data-name="Rectángulo 128" d="M7,0H8a7,7,0,0,1,7,7V116a0,0,0,0,1,0,0H0a0,0,0,0,1,0,0V7A7,7,0,0,1,7,0Z" transform="translate(573 393)" fill="#ff6e95"/>
        <path id="Rectángulo_118" data-name="Rectángulo 118" d="M7,0H8a7,7,0,0,1,7,7V116a0,0,0,0,1,0,0H0a0,0,0,0,1,0,0V7A7,7,0,0,1,7,0Z" transform="translate(367 393)" fill="#ff6e95"/>
        <path id="Rectángulo_122" data-name="Rectángulo 122" d="M7,0H8a7,7,0,0,1,7,7V116a0,0,0,0,1,0,0H0a0,0,0,0,1,0,0V7A7,7,0,0,1,7,0Z" transform="translate(450 393)" fill="#ff6e95"/>
        <path id="Rectángulo_137" data-name="Rectángulo 137" d="M7,0H8a7,7,0,0,1,7,7V62a0,0,0,0,1,0,0H0a0,0,0,0,1,0,0V7A7,7,0,0,1,7,0Z" transform="translate(759 447)" fill="#ff6e95"/>
        <path id="Rectángulo_114" data-name="Rectángulo 114" d="M7,0H7a7,7,0,0,1,7,7V55a0,0,0,0,1,0,0H0a0,0,0,0,1,0,0V7A7,7,0,0,1,7,0Z" transform="translate(285 454)" fill="#ff6e95"/>
        <path id="Rectángulo_132" data-name="Rectángulo 132" d="M7,0H8a7,7,0,0,1,7,7V55a0,0,0,0,1,0,0H0a0,0,0,0,1,0,0V7A7,7,0,0,1,7,0Z" transform="translate(656 454)" fill="#ff6e95"/>
        <path id="Rectángulo_125" data-name="Rectángulo 125" d="M7,0H8a7,7,0,0,1,7,7V55a0,0,0,0,1,0,0H0a0,0,0,0,1,0,0V7A7,7,0,0,1,7,0Z" transform="translate(552 454)" fill="#ff6e95"/>
        <path id="Rectángulo_113" data-name="Rectángulo 113" d="M7,0H8a7,7,0,0,1,7,7V116a0,0,0,0,1,0,0H0a0,0,0,0,1,0,0V7A7,7,0,0,1,7,0Z" transform="translate(243 393)" fill="#ff6e95"/>
        <path id="Rectángulo_130" data-name="Rectángulo 130" d="M7,0H7a7,7,0,0,1,7,7V116a0,0,0,0,1,0,0H0a0,0,0,0,1,0,0V7A7,7,0,0,1,7,0Z" transform="translate(615 393)" fill="#ff6e95"/>
        <path id="Rectángulo_126" data-name="Rectángulo 126" d="M7,0H7a7,7,0,0,1,7,7V116a0,0,0,0,1,0,0H0a0,0,0,0,1,0,0V7A7,7,0,0,1,7,0Z" transform="translate(512 393)" fill="#ff6e95"/>
        <path id="Rectángulo_120" data-name="Rectángulo 120" d="M7,0H8a7,7,0,0,1,7,7V88a0,0,0,0,1,0,0H0a0,0,0,0,1,0,0V7A7,7,0,0,1,7,0Z" transform="translate(408 421)" fill="#ff6e95"/>
        <path id="Rectángulo_135" data-name="Rectángulo 135" d="M7,0H7a7,7,0,0,1,7,7V116a0,0,0,0,1,0,0H0a0,0,0,0,1,0,0V7A7,7,0,0,1,7,0Z" transform="translate(718 393)" fill="#ff6e95"/>
        <path id="Rectángulo_124" data-name="Rectángulo 124" d="M7,0H7a7,7,0,0,1,7,7V66a0,0,0,0,1,0,0H0a0,0,0,0,1,0,0V7A7,7,0,0,1,7,0Z" transform="translate(491 443)" fill="#ff6e95"/>
        <path id="Rectángulo_139" data-name="Rectángulo 139" d="M7,0H8a7,7,0,0,1,7,7V20a0,0,0,0,1,0,0H0a0,0,0,0,1,0,0V7A7,7,0,0,1,7,0Z" transform="translate(800 489)" fill="#ff6e95"/>
        <path id="Rectángulo_116" data-name="Rectángulo 116" d="M7,0H8a7,7,0,0,1,7,7V142a0,0,0,0,1,0,0H0a0,0,0,0,1,0,0V7A7,7,0,0,1,7,0Z" transform="translate(325 367)" fill="#ff6e95"/>
        <path id="Rectángulo_134" data-name="Rectángulo 134" d="M7,0H7a7,7,0,0,1,7,7V142a0,0,0,0,1,0,0H0a0,0,0,0,1,0,0V7A7,7,0,0,1,7,0Z" transform="translate(697 367)" fill="#ff6e95"/>
        <path id="Rectángulo_111" data-name="Rectángulo 111" d="M7,0H8a7,7,0,0,1,7,7V162a0,0,0,0,1,0,0H0a0,0,0,0,1,0,0V7A7,7,0,0,1,7,0Z" transform="translate(223 347)" fill="#ff6e95"/>
        <path id="Rectángulo_129" data-name="Rectángulo 129" d="M7,0H8a7,7,0,0,1,7,7V162a0,0,0,0,1,0,0H0a0,0,0,0,1,0,0V7A7,7,0,0,1,7,0Z" transform="translate(594 347)" fill="#ff6e95"/>
        <path id="Rectángulo_119" data-name="Rectángulo 119" d="M7,0H7a7,7,0,0,1,7,7V71a0,0,0,0,1,0,0H0a0,0,0,0,1,0,0V7A7,7,0,0,1,7,0Z" transform="translate(388 438)" fill="#ff6e95"/>
        <path id="Rectángulo_115" data-name="Rectángulo 115" d="M7,0H7a7,7,0,0,1,7,7V84a0,0,0,0,1,0,0H0a0,0,0,0,1,0,0V7A7,7,0,0,1,7,0Z" transform="translate(306 425)" fill="#ff6e95"/>
        <path id="Rectángulo_133" data-name="Rectángulo 133" d="M7,0H8a7,7,0,0,1,7,7V191a0,0,0,0,1,0,0H0a0,0,0,0,1,0,0V7A7,7,0,0,1,7,0Z" transform="translate(677 318)" fill="#ff6e95"/>
        <path id="Rectángulo_112" data-name="Rectángulo 112" d="M7,0H7a7,7,0,0,1,7,7V88a0,0,0,0,1,0,0H0a0,0,0,0,1,0,0V7A7,7,0,0,1,7,0Z" transform="translate(264 421)" fill="#ff6e95"/>
        <path id="Rectángulo_131" data-name="Rectángulo 131" d="M7,0H8a7,7,0,0,1,7,7V88a0,0,0,0,1,0,0H0a0,0,0,0,1,0,0V7A7,7,0,0,1,7,0Z" transform="translate(635 421)" fill="#ff6e95"/>
        <path id="Rectángulo_127" data-name="Rectángulo 127" d="M7,0H7a7,7,0,0,1,7,7V88a0,0,0,0,1,0,0H0a0,0,0,0,1,0,0V7A7,7,0,0,1,7,0Z" transform="translate(533 421)" fill="#ff6e95"/>
        <path id="Rectángulo_117" data-name="Rectángulo 117" d="M7,0H8a7,7,0,0,1,7,7V88a0,0,0,0,1,0,0H0a0,0,0,0,1,0,0V7A7,7,0,0,1,7,0Z" transform="translate(346 421)" fill="#ff6e95"/>
        <path id="Rectángulo_121" data-name="Rectángulo 121" d="M7,0H8a7,7,0,0,1,7,7V108a0,0,0,0,1,0,0H0a0,0,0,0,1,0,0V7A7,7,0,0,1,7,0Z" transform="translate(429 401)" fill="#ff6e95"/>
        <path id="Rectángulo_136" data-name="Rectángulo 136" d="M7,0H7a7,7,0,0,1,7,7V88a0,0,0,0,1,0,0H0a0,0,0,0,1,0,0V7A7,7,0,0,1,7,0Z" transform="translate(739 421)" fill="#ff6e95"/>
        <path id="Rectángulo_123" data-name="Rectángulo 123" d="M7,0H7a7,7,0,0,1,7,7V88a0,0,0,0,1,0,0H0a0,0,0,0,1,0,0V7A7,7,0,0,1,7,0Z" transform="translate(470 421)" fill="#ff6e95"/>
        <path id="Rectángulo_138" data-name="Rectángulo 138" d="M7,0H8a7,7,0,0,1,7,7V36a0,0,0,0,1,0,0H0a0,0,0,0,1,0,0V7A7,7,0,0,1,7,0Z" transform="translate(779 473)" fill="#ff6e95"/>
        <line id="Línea_70" data-name="Línea 70" x2="453.5" transform="translate(250.5 888.5)" fill="none" stroke="#707070" stroke-width="1"/>
        <g id="lupa" transform="translate(199.563 848.49)">
          <path id="Trazado_16" data-name="Trazado 16" d="M24.826,22.207H23.447l-.489-.471a11.367,11.367,0,1,0-1.222,1.222l.471.489v1.379l8.73,8.713,2.6-2.6Zm-10.477,0a7.857,7.857,0,1,1,7.857-7.857A7.847,7.847,0,0,1,14.35,22.207Z" transform="translate(2.238 2.238)" fill="#9e9c9c"/>
          <path id="Trazado_17" data-name="Trazado 17" d="M0,0H41.906V41.906H0Z" fill="none"/>
        </g>
        <text id="X" transform="translate(693 873)" fill="#9e9c9c" font-size="18" font-family="SegoeUI, Segoe UI"><tspan x="0" y="0">X</tspan></text>
        <text id="X-2" data-name="X" transform="translate(501 1221)" fill="#9e9c9c" font-size="18" font-family="SegoeUI, Segoe UI"><tspan x="0" y="0">X</tspan></text>
        <text id="X-3" data-name="X" transform="translate(635 1221)" fill="#9e9c9c" font-size="18" font-family="SegoeUI, Segoe UI"><tspan x="0" y="0">X</tspan></text>
        <text id="X-4" data-name="X" transform="translate(769 1221)" fill="#9e9c9c" font-size="18" font-family="SegoeUI, Segoe UI"><tspan x="0" y="0">X</tspan></text>
        <text id="Realiza_una_busqueda" data-name="Realiza una busqueda" transform="translate(251 874)" fill="#c9c9c9" font-size="20" font-family="SegoeUI-Bold, Segoe UI" font-weight="700"><tspan x="0" y="0">Realiza una busqueda</tspan></text>
        <g transform="matrix(1, 0, 0, 1, 24, 12)" filter="url(#Rectángulo_140)">
          <g id="Rectángulo_140-2" data-name="Rectángulo 140" transform="translate(701 839)" fill="#545454" stroke="#707070" stroke-width="1">
            <rect width="94" height="38" rx="5" stroke="none"/>
            <rect x="0.5" y="0.5" width="93" height="37" rx="4.5" fill="none"/>
          </g>
        </g>
        <g id="Rectángulo_142" data-name="Rectángulo 142" transform="translate(393 1195)" fill="#707070" stroke="#707070" stroke-width="1">
          <rect width="94" height="38" rx="5" stroke="none"/>
          <rect x="0.5" y="0.5" width="93" height="37" rx="4.5" fill="none"/>
        </g>
        <g id="Rectángulo_145" data-name="Rectángulo 145" transform="translate(263 1195)" fill="none" stroke="#707070" stroke-width="2">
          <rect width="94" height="38" rx="5" stroke="none"/>
          <rect x="1" y="1" width="92" height="36" rx="4" fill="none"/>
        </g>
        <g id="Rectángulo_143" data-name="Rectángulo 143" transform="translate(527 1195)" fill="#707070" stroke="#707070" stroke-width="1">
          <rect width="94" height="38" rx="5" stroke="none"/>
          <rect x="0.5" y="0.5" width="93" height="37" rx="4.5" fill="none"/>
        </g>
        <g id="Rectángulo_144" data-name="Rectángulo 144" transform="translate(661 1195)" fill="#707070" stroke="#707070" stroke-width="1">
          <rect width="94" height="38" rx="5" stroke="none"/>
          <rect x="0.5" y="0.5" width="93" height="37" rx="4.5" fill="none"/>
        </g>
        <text id="Buscar" transform="translate(742 876)" fill="#c9c9c9" font-size="20" font-family="SegoeUI-Bold, Segoe UI" font-weight="700"><tspan x="0" y="0">Buscar</tspan></text>
        <text id="Tag_1" data-name="Tag 1" transform="translate(415 1222)" fill="#c9c9c9" font-size="20" font-family="SegoeUI-Bold, Segoe UI" font-weight="700"><tspan x="0" y="0">Tag 1</tspan></text>
        <text id="Add" transform="translate(291 1222)" fill="#c9c9c9" font-size="20" font-family="SegoeUI-Bold, Segoe UI" font-weight="700"><tspan x="0" y="0">Add</tspan></text>
        <text id="Tag_2" data-name="Tag 2" transform="translate(575 1222)" fill="#c9c9c9" font-size="20" font-family="SegoeUI-Bold, Segoe UI" font-weight="700"><tspan x="-25.093" y="0">Tag 2</tspan></text>
        <text id="Tag_3" data-name="Tag 3" transform="translate(709 1222)" fill="#c9c9c9" font-size="20" font-family="SegoeUI-Bold, Segoe UI" font-weight="700"><tspan x="-25.093" y="0">Tag 3</tspan></text>
        <text id="Highlights" transform="translate(261 1004)" fill="#9e9c9c" font-size="24" font-family="SegoeUI-Bold, Segoe UI" font-weight="700"><tspan x="0" y="0">Highlights</tspan></text>
        <text id="Markers" transform="translate(261 1080)" fill="#9e9c9c" font-size="24" font-family="SegoeUI-Bold, Segoe UI" font-weight="700"><tspan x="0" y="0">Markers</tspan></text>
        <text id="Tags" transform="translate(260 1155)" fill="#9e9c9c" font-size="24" font-family="SegoeUI-Bold, Segoe UI" font-weight="700"><tspan x="0" y="0">Tags</tspan></text>
        <text id="Metadata" transform="translate(260 1300)" fill="#9e9c9c" font-size="24" font-family="SegoeUI-Bold, Segoe UI" font-weight="700"><tspan x="0" y="0">Metadata</tspan></text>
        <g id="Grupo_22" data-name="Grupo 22" transform="translate(-912.135 457.034) rotate(-45)">
          <line id="Línea_71" data-name="Línea 71" x2="18.657" transform="translate(412.5 1189.117)" fill="none" stroke="#9e9c9c" stroke-width="3"/>
          <line id="Línea_72" data-name="Línea 72" y2="19.476" transform="translate(431.157 1170.358)" fill="none" stroke="#9e9c9c" stroke-width="3"/>
        </g>
        <g id="Grupo_23" data-name="Grupo 23" transform="translate(-912.135 533.034) rotate(-45)">
          <line id="Línea_71-2" data-name="Línea 71" x2="18.657" transform="translate(412.5 1189.117)" fill="none" stroke="#9e9c9c" stroke-width="3"/>
          <line id="Línea_72-2" data-name="Línea 72" y2="19.476" transform="translate(431.157 1170.358)" fill="none" stroke="#9e9c9c" stroke-width="3"/>
        </g>
        <g id="Grupo_24" data-name="Grupo 24" transform="translate(755.773 12.478) rotate(45)">
          <line id="Línea_71-3" data-name="Línea 71" x2="18.657" transform="translate(412.5 1189.117)" fill="none" stroke="#9e9c9c" stroke-width="3"/>
          <line id="Línea_72-3" data-name="Línea 72" y2="19.476" transform="translate(431.157 1170.358)" fill="none" stroke="#9e9c9c" stroke-width="3"/>
        </g>
        <g id="Grupo_25" data-name="Grupo 25" transform="translate(-913.135 754.034) rotate(-45)">
          <line id="Línea_71-4" data-name="Línea 71" x2="18.657" transform="translate(412.5 1189.117)" fill="none" stroke="#9e9c9c" stroke-width="3"/>
          <line id="Línea_72-4" data-name="Línea 72" y2="19.476" transform="translate(431.157 1170.358)" fill="none" stroke="#9e9c9c" stroke-width="3"/>
        </g>
        <g id="Rectángulo_146" data-name="Rectángulo 146" transform="translate(155 1520)" fill="#545454" stroke="#707070" stroke-width="1">
          <rect width="706" height="15" stroke="none"/>
          <rect x="0.5" y="0.5" width="705" height="14" fill="none"/>
        </g>
      </g>
    </g>
  </g>
</svg>
