<svg xmlns="http://www.w3.org/2000/svg" xmlns:xlink="http://www.w3.org/1999/xlink" width="1996" height="737" viewBox="0 0 1996 737">
  <defs>
    <filter id="Rectángulo_90" x="152" y="345" width="254" height="103" filterUnits="userSpaceOnUse">
      <feOffset dx="8" dy="15" input="SourceAlpha"/>
      <feGaussianBlur stdDeviation="4" result="blur"/>
      <feFlood flood-opacity="0.161"/>
      <feComposite operator="in" in2="blur"/>
      <feComposite in="SourceGraphic"/>
    </filter>
    <filter id="Rectángulo_95" x="152" y="534" width="248" height="94" filterUnits="userSpaceOnUse">
      <feOffset dx="5" dy="5" input="SourceAlpha"/>
      <feGaussianBlur stdDeviation="3" result="blur-2"/>
      <feFlood flood-opacity="0.161"/>
      <feComposite operator="in" in2="blur-2"/>
      <feComposite in="SourceGraphic"/>
    </filter>
    <linearGradient id="linear-gradient" x1="0.5" x2="0.5" y2="1" gradientUnits="objectBoundingBox">
      <stop offset="0" stop-color="#00cbe0"/>
      <stop offset="1" stop-color="#5683ff"/>
    </linearGradient>
    <filter id="Rectángulo_91" x="416" y="345" width="254" height="103" filterUnits="userSpaceOnUse">
      <feOffset dx="8" dy="15" input="SourceAlpha"/>
      <feGaussianBlur stdDeviation="4" result="blur-3"/>
      <feFlood flood-opacity="0.161"/>
      <feComposite operator="in" in2="blur-3"/>
      <feComposite in="SourceGraphic"/>
    </filter>
    <filter id="Rectángulo_94" x="419" y="534" width="248" height="94" filterUnits="userSpaceOnUse">
      <feOffset dx="8" dy="5" input="SourceAlpha"/>
      <feGaussianBlur stdDeviation="3" result="blur-4"/>
      <feFlood flood-opacity="0.161"/>
      <feComposite operator="in" in2="blur-4"/>
      <feComposite in="SourceGraphic"/>
    </filter>
    <filter id="Rectángulo_92" x="676" y="345" width="254" height="103" filterUnits="userSpaceOnUse">
      <feOffset dx="8" dy="15" input="SourceAlpha"/>
      <feGaussianBlur stdDeviation="4" result="blur-5"/>
      <feFlood flood-opacity="0.161"/>
      <feComposite operator="in" in2="blur-5"/>
      <feComposite in="SourceGraphic"/>
    </filter>
    <filter id="Rectángulo_93" x="676" y="534" width="248" height="94" filterUnits="userSpaceOnUse">
      <feOffset dx="5" dy="5" input="SourceAlpha"/>
      <feGaussianBlur stdDeviation="3" result="blur-6"/>
      <feFlood flood-opacity="0.161"/>
      <feComposite operator="in" in2="blur-6"/>
      <feComposite in="SourceGraphic"/>
    </filter>
    <clipPath id="clip-Botones">
      <rect width="1996" height="737"/>
    </clipPath>
  </defs>
  <g id="Botones" clip-path="url(#clip-Botones)">
    <rect width="1996" height="737" fill="#fff"/>
    <text id="Hover" transform="translate(156 290)" fill="#9e9c9c" font-size="20" font-family="SegoeUI-Bold, Segoe UI" font-weight="700"><tspan x="0" y="0">Hover</tspan></text>
    <text id="Active" transform="translate(156 483)" fill="#9e9c9c" font-size="20" font-family="SegoeUI-Bold, Segoe UI" font-weight="700"><tspan x="0" y="0">Active</tspan></text>
    <line id="Línea_55" data-name="Línea 55" x2="66" transform="translate(156.5 116.5)" fill="none" stroke="#707070" stroke-width="1"/>
    <line id="Línea_56" data-name="Línea 56" x2="78" transform="translate(1059.5 122.5)" fill="none" stroke="#707070" stroke-width="1"/>
    <line id="Línea_57" data-name="Línea 57" x2="118" transform="translate(1432.5 119.5)" fill="none" stroke="#707070" stroke-width="1"/>
    <line id="Línea_54" data-name="Línea 54" x2="54" transform="translate(156.5 309.5)" fill="none" stroke="#707070" stroke-width="1"/>
    <line id="Línea_53" data-name="Línea 53" x2="57" transform="translate(156.5 502.5)" fill="none" stroke="#707070" stroke-width="1"/>
    <g id="Rectángulo_85" data-name="Rectángulo 85" transform="translate(157 152)" fill="#fff" stroke="#5683ff" stroke-width="3">
      <rect width="230" height="76" rx="5" stroke="none"/>
      <rect x="1.5" y="1.5" width="227" height="73" rx="3.5" fill="none"/>
    </g>
    <g transform="matrix(1, 0, 0, 1, 0, 0)" filter="url(#Rectángulo_90)">
      <g id="Rectángulo_90-2" data-name="Rectángulo 90" transform="translate(156 345)" fill="#5683ff" stroke="#5683ff" stroke-width="3">
        <rect width="230" height="76" rx="5" stroke="none"/>
        <rect x="1.5" y="1.5" width="227" height="73" rx="3.5" fill="none"/>
      </g>
    </g>
    <g transform="matrix(1, 0, 0, 1, 0, 0)" filter="url(#Rectángulo_95)">
      <rect id="Rectángulo_95-2" data-name="Rectángulo 95" width="230" height="76" rx="5" transform="translate(156 538)" fill="#7fa1fe"/>
    </g>
    <g id="Rectángulo_88" data-name="Rectángulo 88" transform="translate(1059 152)" fill="#fff" stroke="#9e9c9c" stroke-width="3">
      <rect width="230" height="76" rx="5" stroke="none"/>
      <rect x="1.5" y="1.5" width="227" height="73" rx="3.5" fill="none"/>
    </g>
    <g id="Rectángulo_89" data-name="Rectángulo 89" transform="translate(1432 149)" stroke="#545454" stroke-width="1" fill="url(#linear-gradient)">
      <rect width="230" height="76" rx="5" stroke="none"/>
      <rect x="0.5" y="0.5" width="229" height="75" rx="4.5" fill="none"/>
    </g>
    <g id="Rectángulo_86" data-name="Rectángulo 86" transform="translate(421 152)" fill="#fff" stroke="#69f6b0" stroke-width="3">
      <rect width="230" height="76" rx="5" stroke="none"/>
      <rect x="1.5" y="1.5" width="227" height="73" rx="3.5" fill="none"/>
    </g>
    <g transform="matrix(1, 0, 0, 1, 0, 0)" filter="url(#Rectángulo_91)">
      <g id="Rectángulo_91-2" data-name="Rectángulo 91" transform="translate(420 345)" fill="#69f6b0" stroke="#69f6b0" stroke-width="3">
        <rect width="230" height="76" rx="5" stroke="none"/>
        <rect x="1.5" y="1.5" width="227" height="73" rx="3.5" fill="none"/>
      </g>
    </g>
    <g transform="matrix(1, 0, 0, 1, 0, 0)" filter="url(#Rectángulo_94)">
      <rect id="Rectángulo_94-2" data-name="Rectángulo 94" width="230" height="76" rx="5" transform="translate(420 538)" fill="#acffd6"/>
    </g>
    <g id="Rectángulo_87" data-name="Rectángulo 87" transform="translate(681 152)" fill="#fff" stroke="#ff6e95" stroke-width="3">
      <rect width="230" height="76" rx="5" stroke="none"/>
      <rect x="1.5" y="1.5" width="227" height="73" rx="3.5" fill="none"/>
    </g>
    <g transform="matrix(1, 0, 0, 1, 0, 0)" filter="url(#Rectángulo_92)">
      <g id="Rectángulo_92-2" data-name="Rectángulo 92" transform="translate(680 345)" fill="#ff6e95" stroke="#ff6e95" stroke-width="3">
        <rect width="230" height="76" rx="5" stroke="none"/>
        <rect x="1.5" y="1.5" width="227" height="73" rx="3.5" fill="none"/>
      </g>
    </g>
    <g transform="matrix(1, 0, 0, 1, 0, 0)" filter="url(#Rectángulo_93)">
      <rect id="Rectángulo_93-2" data-name="Rectángulo 93" width="230" height="76" rx="5" transform="translate(680 538)" fill="#ff9cb7"/>
    </g>
    <text id="Normal" transform="translate(156 97)" fill="#9e9c9c" font-size="20" font-family="SegoeUI-Bold, Segoe UI" font-weight="700"><tspan x="0" y="0">Normal</tspan></text>
    <text id="Disabled" transform="translate(1059 103)" fill="#9e9c9c" font-size="20" font-family="SegoeUI-Bold, Segoe UI" font-weight="700"><tspan x="0" y="0">Disabled</tspan></text>
    <text id="Log_in" data-name="Log in" transform="translate(1432 100)" fill="#9e9c9c" font-size="20" font-family="SegoeUI-Bold, Segoe UI" font-weight="700"><tspan x="0" y="0">Log in</tspan></text>
    <text id="Volver" transform="translate(239 198)" fill="#707070" font-size="20" font-family="SegoeUI-Bold, Segoe UI" font-weight="700"><tspan x="0" y="0">Volver</tspan></text>
    <text id="Volver-2" data-name="Volver" transform="translate(238 391)" fill="#fff" font-size="20" font-family="SegoeUI-Bold, Segoe UI" font-weight="700"><tspan x="0" y="0">Volver</tspan></text>
    <text id="Volver-3" data-name="Volver" transform="translate(238 584)" fill="#fff" font-size="20" font-family="SegoeUI-Bold, Segoe UI" font-weight="700"><tspan x="0" y="0">Volver</tspan></text>
    <text id="Disabled-2" data-name="Disabled" transform="translate(1135 198)" fill="#707070" font-size="20" font-family="SegoeUI-Bold, Segoe UI" font-weight="700"><tspan x="0" y="0">Disabled</tspan></text>
    <text id="log_in-2" data-name="log in" transform="translate(1510 195)" fill="#fff" font-size="30" font-family="SegoeUI-Bold, Segoe UI" font-weight="700"><tspan x="0" y="0">log in</tspan></text>
    <text id="Aceptar" transform="translate(503 198)" fill="#707070" font-size="20" font-family="SegoeUI-Bold, Segoe UI" font-weight="700"><tspan x="0" y="0">Aceptar</tspan></text>
    <text id="Aceptar-2" data-name="Aceptar" transform="translate(502 391)" fill="#3b3b3b" font-size="20" font-family="SegoeUI-Bold, Segoe UI" font-weight="700"><tspan x="0" y="0">Aceptar</tspan></text>
    <text id="Aceptar-3" data-name="Aceptar" transform="translate(502 584)" fill="#707070" font-size="20" font-family="SegoeUI-Bold, Segoe UI" font-weight="700"><tspan x="0" y="0">Aceptar</tspan></text>
    <text id="Cancelar" transform="translate(756 198)" fill="#707070" font-size="20" font-family="SegoeUI-Bold, Segoe UI" font-weight="700"><tspan x="0" y="0">Cancelar</tspan></text>
    <text id="Cancelar-2" data-name="Cancelar" transform="translate(755 391)" fill="#fff" font-size="20" font-family="SegoeUI-Bold, Segoe UI" font-weight="700"><tspan x="0" y="0">Cancelar</tspan></text>
    <text id="Cancelar-3" data-name="Cancelar" transform="translate(755 584)" fill="#fff" font-size="20" font-family="SegoeUI-Bold, Segoe UI" font-weight="700"><tspan x="0" y="0">Cancelar</tspan></text>
    <line id="Línea_58" data-name="Línea 58" y1="146" transform="translate(987.5 82.5)" fill="none" stroke="#707070" stroke-width="1"/>
    <line id="Línea_59" data-name="Línea 59" y1="146" transform="translate(1360.5 89.5)" fill="none" stroke="#707070" stroke-width="1"/>
    <g id="Grupo_15" data-name="Grupo 15">
      <circle id="Elipse_92" data-name="Elipse 92" cx="38" cy="38" r="38" transform="translate(1729 149)" fill="#9e9c9c"/>
      <g id="grafico-2" transform="translate(1742.5 162.5)">
        <path id="Trazado_52" data-name="Trazado 52" d="M0,0H49V49H0Z" fill="none"/>
      </g>
    </g>
    <path id="Trazado_55" data-name="Trazado 55" d="M20.375,2V42.833A20.53,20.53,0,0,1,20.375,2ZM24.52,2V20.355H42.833A20.507,20.507,0,0,0,24.52,2Zm0,22.479V42.833A20.488,20.488,0,0,0,42.833,24.479Z" transform="translate(1744.583 164.583)" fill="#fff"/>
    <g id="Grupo_20" data-name="Grupo 20">
      <g id="Grupo_17" data-name="Grupo 17" transform="translate(97)">
        <circle id="Elipse_92-2" data-name="Elipse 92" cx="38" cy="38" r="38" transform="translate(1729 149)" fill="#9e9c9c"/>
        <g id="grafico-2-2" data-name="grafico-2" transform="translate(1742.5 162.5)">
          <path id="Trazado_52-2" data-name="Trazado 52" d="M0,0H49V49H0Z" fill="none"/>
        </g>
      </g>
      <path id="Trazado_56" data-name="Trazado 56" d="M4,25.244h9v-9H4ZM4,36.49h9v-9H4ZM4,14h9V5H4ZM15.247,25.244H42.238v-9H15.247Zm0,11.247H42.238v-9H15.247Zm0-31.49v9H42.238V5Z" transform="translate(1841 166)" fill="#fff"/>
    </g>
  </g>
</svg>
