<svg xmlns="http://www.w3.org/2000/svg" xmlns:xlink="http://www.w3.org/1999/xlink" width="1012" height="704" viewBox="0 0 1012 704">
  <defs>
    <filter id="Rectángulo_90" x="201" y="125" width="254" height="103" filterUnits="userSpaceOnUse">
      <feOffset dx="8" dy="15" input="SourceAlpha"/>
      <feGaussianBlur stdDeviation="4" result="blur"/>
      <feFlood flood-opacity="0.161"/>
      <feComposite operator="in" in2="blur"/>
      <feComposite in="SourceGraphic"/>
    </filter>
    <filter id="Rectángulo_95" x="201" y="246" width="248" height="94" filterUnits="userSpaceOnUse">
      <feOffset dx="5" dy="5" input="SourceAlpha"/>
      <feGaussianBlur stdDeviation="3" result="blur-2"/>
      <feFlood flood-opacity="0.161"/>
      <feComposite operator="in" in2="blur-2"/>
      <feComposite in="SourceGraphic"/>
    </filter>
    <filter id="Rectángulo_91" x="765" y="125" width="254" height="103" filterUnits="userSpaceOnUse">
      <feOffset dx="8" dy="15" input="SourceAlpha"/>
      <feGaussianBlur stdDeviation="4" result="blur-3"/>
      <feFlood flood-opacity="0.161"/>
      <feComposite operator="in" in2="blur-3"/>
      <feComposite in="SourceGraphic"/>
    </filter>
    <filter id="Rectángulo_94" x="768" y="246" width="248" height="94" filterUnits="userSpaceOnUse">
      <feOffset dx="8" dy="5" input="SourceAlpha"/>
      <feGaussianBlur stdDeviation="3" result="blur-4"/>
      <feFlood flood-opacity="0.161"/>
      <feComposite operator="in" in2="blur-4"/>
      <feComposite in="SourceGraphic"/>
    </filter>
    <filter id="Rectángulo_92" x="481" y="125" width="254" height="103" filterUnits="userSpaceOnUse">
      <feOffset dx="8" dy="15" input="SourceAlpha"/>
      <feGaussianBlur stdDeviation="4" result="blur-5"/>
      <feFlood flood-opacity="0.161"/>
      <feComposite operator="in" in2="blur-5"/>
      <feComposite in="SourceGraphic"/>
    </filter>
    <filter id="Rectángulo_93" x="481" y="246" width="248" height="94" filterUnits="userSpaceOnUse">
      <feOffset dx="5" dy="5" input="SourceAlpha"/>
      <feGaussianBlur stdDeviation="3" result="blur-6"/>
      <feFlood flood-opacity="0.161"/>
      <feComposite operator="in" in2="blur-6"/>
      <feComposite in="SourceGraphic"/>
    </filter>
    <linearGradient id="linear-gradient" x1="0.5" x2="0.5" y2="1" gradientUnits="objectBoundingBox">
      <stop offset="0" stop-color="#00cbe0"/>
      <stop offset="1" stop-color="#5683ff"/>
    </linearGradient>
    <filter id="Rectángulo_89" x="201" y="375" width="254" height="103" filterUnits="userSpaceOnUse">
      <feOffset dx="8" dy="15" input="SourceAlpha"/>
      <feGaussianBlur stdDeviation="4" result="blur-7"/>
      <feFlood flood-opacity="0.161"/>
      <feComposite operator="in" in2="blur-7"/>
      <feComposite in="SourceGraphic"/>
    </filter>
    <clipPath id="clip-botones">
      <rect width="1012" height="704"/>
    </clipPath>
  </defs>
  <g id="botones" clip-path="url(#clip-botones)">
    <rect width="1012" height="704" fill="#fff"/>
    <g id="Rectángulo_85" data-name="Rectángulo 85" transform="translate(205)" fill="none" stroke="#5683ff" stroke-width="3">
      <rect width="230" height="76" rx="5" stroke="none"/>
      <rect x="1.5" y="1.5" width="227" height="73" rx="3.5" fill="none"/>
    </g>
    <g transform="matrix(1, 0, 0, 1, 0, 0)" filter="url(#Rectángulo_90)">
      <g id="Rectángulo_90-2" data-name="Rectángulo 90" transform="translate(205 125)" fill="#5683ff" stroke="#5683ff" stroke-width="3">
        <rect width="230" height="76" rx="5" stroke="none"/>
        <rect x="1.5" y="1.5" width="227" height="73" rx="3.5" fill="none"/>
      </g>
    </g>
    <g transform="matrix(1, 0, 0, 1, 0, 0)" filter="url(#Rectángulo_95)">
      <rect id="Rectángulo_95-2" data-name="Rectángulo 95" width="230" height="76" rx="5" transform="translate(205 250)" fill="#7fa1fe"/>
    </g>
    <g id="Rectángulo_86" data-name="Rectángulo 86" transform="translate(769)" fill="none" stroke="#00cbe0" stroke-width="3">
      <rect width="230" height="76" rx="5" stroke="none"/>
      <rect x="1.5" y="1.5" width="227" height="73" rx="3.5" fill="none"/>
    </g>
    <g transform="matrix(1, 0, 0, 1, 0, 0)" filter="url(#Rectángulo_91)">
      <rect id="Rectángulo_91-2" data-name="Rectángulo 91" width="230" height="76" rx="5" transform="translate(769 125)" fill="#69f6b0"/>
    </g>
    <g transform="matrix(1, 0, 0, 1, 0, 0)" filter="url(#Rectángulo_94)">
      <rect id="Rectángulo_94-2" data-name="Rectángulo 94" width="230" height="76" rx="5" transform="translate(769 250)" fill="#acffd6"/>
    </g>
    <g id="Rectángulo_87" data-name="Rectángulo 87" transform="translate(485)" fill="none" stroke="#ff6e95" stroke-width="3">
      <rect width="230" height="76" rx="5" stroke="none"/>
      <rect x="1.5" y="1.5" width="227" height="73" rx="3.5" fill="none"/>
    </g>
    <g transform="matrix(1, 0, 0, 1, 0, 0)" filter="url(#Rectángulo_92)">
      <g id="Rectángulo_92-2" data-name="Rectángulo 92" transform="translate(485 125)" fill="#ff6e95" stroke="#ff6e95" stroke-width="3">
        <rect width="230" height="76" rx="5" stroke="none"/>
        <rect x="1.5" y="1.5" width="227" height="73" rx="3.5" fill="none"/>
      </g>
    </g>
    <g transform="matrix(1, 0, 0, 1, 0, 0)" filter="url(#Rectángulo_93)">
      <rect id="Rectángulo_93-2" data-name="Rectángulo 93" width="230" height="76" rx="5" transform="translate(485 250)" fill="#ff9cb7"/>
    </g>
    <text id="Normal" transform="translate(1 46)" fill="#b7b7b7" font-size="16" font-family="SegoeUI-Bold, Segoe UI" font-weight="700"><tspan x="0" y="0">Normal</tspan></text>
    <text id="Hover" transform="translate(1 167)" fill="#b7b7b7" font-size="16" font-family="SegoeUI-Bold, Segoe UI" font-weight="700"><tspan x="0" y="0">Hover</tspan></text>
    <text id="Active" transform="translate(1 295)" fill="#b7b7b7" font-size="16" font-family="SegoeUI-Bold, Segoe UI" font-weight="700"><tspan x="0" y="0">Active</tspan></text>
    <text id="Volver" transform="translate(287 46)" fill="#707070" font-size="20" font-family="SegoeUI-Bold, Segoe UI" font-weight="700"><tspan x="0" y="0">Volver</tspan></text>
    <text id="Volver-2" data-name="Volver" transform="translate(287 171)" fill="#fff" font-size="20" font-family="SegoeUI-Bold, Segoe UI" font-weight="700"><tspan x="0" y="0">Volver</tspan></text>
    <text id="Volver-3" data-name="Volver" transform="translate(287 296)" fill="#fff" font-size="20" font-family="SegoeUI-Bold, Segoe UI" font-weight="700"><tspan x="0" y="0">Volver</tspan></text>
    <text id="Aceptar" transform="translate(851 46)" fill="#707070" font-size="20" font-family="SegoeUI-Bold, Segoe UI" font-weight="700"><tspan x="0" y="0">Aceptar</tspan></text>
    <text id="Aceptar-2" data-name="Aceptar" transform="translate(851 171)" fill="#3b3b3b" font-size="20" font-family="SegoeUI-Bold, Segoe UI" font-weight="700"><tspan x="0" y="0">Aceptar</tspan></text>
    <text id="Aceptar-3" data-name="Aceptar" transform="translate(851 296)" fill="#707070" font-size="20" font-family="SegoeUI-Bold, Segoe UI" font-weight="700"><tspan x="0" y="0">Aceptar</tspan></text>
    <text id="Cancelar" transform="translate(560 46)" fill="#707070" font-size="20" font-family="SegoeUI-Bold, Segoe UI" font-weight="700"><tspan x="0" y="0">Cancelar</tspan></text>
    <text id="Cancelar-2" data-name="Cancelar" transform="translate(560 171)" fill="#fff" font-size="20" font-family="SegoeUI-Bold, Segoe UI" font-weight="700"><tspan x="0" y="0">Cancelar</tspan></text>
    <text id="Cancelar-3" data-name="Cancelar" transform="translate(560 296)" fill="#fff" font-size="20" font-family="SegoeUI-Bold, Segoe UI" font-weight="700"><tspan x="0" y="0">Cancelar</tspan></text>
    <g id="Rectángulo_88" data-name="Rectángulo 88" transform="translate(205 503)" fill="none" stroke="#9e9c9c" stroke-width="3">
      <rect width="230" height="76" rx="5" stroke="none"/>
      <rect x="1.5" y="1.5" width="227" height="73" rx="3.5" fill="none"/>
    </g>
    <g transform="matrix(1, 0, 0, 1, 0, 0)" filter="url(#Rectángulo_89)">
      <rect id="Rectángulo_89-2" data-name="Rectángulo 89" width="230" height="76" rx="5" transform="translate(205 375)" fill="url(#linear-gradient)"/>
    </g>
    <text id="Log_in" data-name="Log in" transform="translate(1 416)" fill="#b7b7b7" font-size="16" font-family="SegoeUI-Bold, Segoe UI" font-weight="700"><tspan x="0" y="0">Log in</tspan></text>
    <text id="Disable" transform="translate(1 537)" fill="#b7b7b7" font-size="16" font-family="SegoeUI-Bold, Segoe UI" font-weight="700"><tspan x="0" y="0">Disable</tspan></text>
    <text id="Gráficos_Listas" data-name="Gráficos &amp;
Listas" transform="translate(1 665)" fill="#b7b7b7" font-size="16" font-family="SegoeUI-Bold, Segoe UI" font-weight="700"><tspan x="0" y="0">Gráficos &amp;</tspan><tspan x="0" y="21">Listas</tspan></text>
    <text id="Disabled" transform="translate(281 549)" fill="#707070" font-size="20" font-family="SegoeUI-Bold, Segoe UI" font-weight="700"><tspan x="0" y="0">Disabled</tspan></text>
    <text id="log_in-2" data-name="log in" transform="translate(283 421)" fill="#fff" font-size="30" font-family="SegoeUI-Bold, Segoe UI" font-weight="700"><tspan x="0" y="0">log in</tspan></text>
    <g id="Grupo_15" data-name="Grupo 15" transform="translate(-1524 479)">
      <circle id="Elipse_92" data-name="Elipse 92" cx="38" cy="38" r="38" transform="translate(1729 149)" fill="#9e9c9c"/>
      <g id="grafico-2" transform="translate(1742.5 162.5)">
        <path id="Trazado_52" data-name="Trazado 52" d="M0,0H49V49H0Z" fill="none"/>
      </g>
    </g>
    <path id="Trazado_55" data-name="Trazado 55" d="M20.375,2V42.833A20.53,20.53,0,0,1,20.375,2ZM24.52,2V20.355H42.833A20.507,20.507,0,0,0,24.52,2Zm0,22.479V42.833A20.488,20.488,0,0,0,42.833,24.479Z" transform="translate(220.584 643.583)" fill="#fff"/>
    <g id="Grupo_20" data-name="Grupo 20" transform="translate(-1524 479)">
      <g id="Grupo_17" data-name="Grupo 17" transform="translate(97)">
        <circle id="Elipse_92-2" data-name="Elipse 92" cx="38" cy="38" r="38" transform="translate(1729 149)" fill="#9e9c9c"/>
        <g id="grafico-2-2" data-name="grafico-2" transform="translate(1742.5 162.5)">
          <path id="Trazado_52-2" data-name="Trazado 52" d="M0,0H49V49H0Z" fill="none"/>
        </g>
      </g>
      <path id="Trazado_56" data-name="Trazado 56" d="M4,25.244h9v-9H4ZM4,36.49h9v-9H4ZM4,14h9V5H4ZM15.247,25.244H42.238v-9H15.247Zm0,11.247H42.238v-9H15.247Zm0-31.49v9H42.238V5Z" transform="translate(1841 166)" fill="#fff"/>
    </g>
  </g>
</svg>
