<svg xmlns="http://www.w3.org/2000/svg" xmlns:xlink="http://www.w3.org/1999/xlink" width="252" height="1100" viewBox="0 0 252 1100">
  <defs>
    <clipPath id="clip-botones_1">
      <rect width="252" height="1100"/>
    </clipPath>
  </defs>
  <g id="botones_1" data-name="botones – 1" clip-path="url(#clip-botones_1)">
    <rect width="252" height="1100" fill="#fff"/>
    <text id="Normal" transform="translate(92 17)" fill="#b7b7b7" font-size="16" font-family="SegoeUI-Bold, Segoe UI" font-weight="700"><tspan x="0" y="0">Normal</tspan></text>
    <g id="mail" transform="translate(-2 71)">
      <path id="Trazado_7" data-name="Trazado 7" d="M34.063,4H5.563A3.558,3.558,0,0,0,2.018,7.563L2,28.938A3.573,3.573,0,0,0,5.563,32.5h28.5a3.573,3.573,0,0,0,3.563-3.562V7.563A3.573,3.573,0,0,0,34.063,4Zm0,24.938H5.563V11.125l14.25,8.906,14.25-8.906ZM19.813,16.469,5.563,7.563h28.5Z" fill="#9e9c9c"/>
    </g>
    <g id="mail-2" data-name="mail" transform="translate(-2 408)">
      <path id="Trazado_7-2" data-name="Trazado 7" d="M34.063,4H5.563A3.558,3.558,0,0,0,2.018,7.563L2,28.938A3.573,3.573,0,0,0,5.563,32.5h28.5a3.573,3.573,0,0,0,3.563-3.562V7.563A3.573,3.573,0,0,0,34.063,4Zm0,24.938H5.563V11.125l14.25,8.906,14.25-8.906ZM19.813,16.469,5.563,7.563h28.5Z" fill="#01cae0"/>
    </g>
    <g id="mail-3" data-name="mail" transform="translate(-1 735)">
      <path id="Trazado_7-3" data-name="Trazado 7" d="M34.063,4H5.563A3.558,3.558,0,0,0,2.018,7.563L2,28.938A3.573,3.573,0,0,0,5.563,32.5h28.5a3.573,3.573,0,0,0,3.563-3.562V7.563A3.573,3.573,0,0,0,34.063,4Zm0,24.938H5.563V11.125l14.25,8.906,14.25-8.906ZM19.813,16.469,5.563,7.563h28.5Z" fill="#5683ff"/>
    </g>
    <g id="candado" transform="translate(107 74)">
      <path id="Trazado_5" data-name="Trazado 5" d="M23.333,10.667H21.952V7.9a6.9,6.9,0,1,0-13.81,0v2.762H6.762A2.77,2.77,0,0,0,4,13.429v13.81A2.77,2.77,0,0,0,6.762,30H23.333A2.77,2.77,0,0,0,26.1,27.238V13.429A2.77,2.77,0,0,0,23.333,10.667ZM15.048,23.1a2.762,2.762,0,1,1,2.762-2.762A2.77,2.77,0,0,1,15.048,23.1Zm4.281-12.429H10.767V7.9a4.281,4.281,0,0,1,8.562,0Z" fill="#9e9c9c"/>
    </g>
    <g id="candado-2" data-name="candado" transform="translate(107 411)">
      <path id="Trazado_5-2" data-name="Trazado 5" d="M23.333,10.667H21.952V7.9a6.9,6.9,0,1,0-13.81,0v2.762H6.762A2.77,2.77,0,0,0,4,13.429v13.81A2.77,2.77,0,0,0,6.762,30H23.333A2.77,2.77,0,0,0,26.1,27.238V13.429A2.77,2.77,0,0,0,23.333,10.667ZM15.048,23.1a2.762,2.762,0,1,1,2.762-2.762A2.77,2.77,0,0,1,15.048,23.1Zm4.281-12.429H10.767V7.9a4.281,4.281,0,0,1,8.562,0Z" fill="#01cae0"/>
    </g>
    <g id="candado-3" data-name="candado" transform="translate(108 738)">
      <path id="Trazado_5-3" data-name="Trazado 5" d="M23.333,10.667H21.952V7.9a6.9,6.9,0,1,0-13.81,0v2.762H6.762A2.77,2.77,0,0,0,4,13.429v13.81A2.77,2.77,0,0,0,6.762,30H23.333A2.77,2.77,0,0,0,26.1,27.238V13.429A2.77,2.77,0,0,0,23.333,10.667ZM15.048,23.1a2.762,2.762,0,1,1,2.762-2.762A2.77,2.77,0,0,1,15.048,23.1Zm4.281-12.429H10.767V7.9a4.281,4.281,0,0,1,8.562,0Z" fill="#5683ff"/>
    </g>
    <path id="Trazado_46" data-name="Trazado 46" d="M23.85,21.348H22.533l-.467-.45A10.859,10.859,0,1,0,20.9,22.066l.45.467V23.85l8.34,8.323,2.485-2.485Zm-10.008,0a7.506,7.506,0,1,1,7.506-7.506A7.5,7.5,0,0,1,13.842,21.348Z" transform="translate(216 72)" fill="#9e9c9c"/>
    <path id="Trazado_74" data-name="Trazado 74" d="M23.85,21.348H22.533l-.467-.45A10.859,10.859,0,1,0,20.9,22.066l.45.467V23.85l8.34,8.323,2.485-2.485Zm-10.008,0a7.506,7.506,0,1,1,7.506-7.506A7.5,7.5,0,0,1,13.842,21.348Z" transform="translate(216 409)" fill="#01cae0"/>
    <path id="Trazado_81" data-name="Trazado 81" d="M23.85,21.348H22.533l-.467-.45A10.859,10.859,0,1,0,20.9,22.066l.45.467V23.85l8.34,8.323,2.485-2.485Zm-10.008,0a7.506,7.506,0,1,1,7.506-7.506A7.5,7.5,0,0,1,13.842,21.348Z" transform="translate(217 736)" fill="#5683ff"/>
    <path id="Unión_16" data-name="Unión 16" d="M-1994.25,26.026h6.5A3.13,3.13,0,0,1-1991,29,3.121,3.121,0,0,1-1994.25,26.026Zm-9.75-1.487V23.051l3.251-2.974V12.641c0-4.58,2.648-8.388,7.313-9.4V2.231A2.338,2.338,0,0,1-1991,0a2.338,2.338,0,0,1,2.438,2.231V3.242a9.177,9.177,0,0,1,7.313,9.4v7.436l3.25,2.974v1.488Z" transform="translate(2009 152)" fill="#9e9c9c"/>
    <path id="Unión_17" data-name="Unión 17" d="M-1994.25,26.026h6.5A3.13,3.13,0,0,1-1991,29,3.121,3.121,0,0,1-1994.25,26.026Zm-9.75-1.487V23.051l3.251-2.974V12.641c0-4.58,2.648-8.388,7.313-9.4V2.231A2.338,2.338,0,0,1-1991,0a2.338,2.338,0,0,1,2.438,2.231V3.242a9.177,9.177,0,0,1,7.313,9.4v7.436l3.25,2.974v1.488Z" transform="translate(2009 489)" fill="#01cae0"/>
    <path id="Unión_18" data-name="Unión 18" d="M-1994.25,26.026h6.5A3.13,3.13,0,0,1-1991,29,3.121,3.121,0,0,1-1994.25,26.026Zm-9.75-1.487V23.051l3.251-2.974V12.641c0-4.58,2.648-8.388,7.313-9.4V2.231A2.338,2.338,0,0,1-1991,0a2.338,2.338,0,0,1,2.438,2.231V3.242a9.177,9.177,0,0,1,7.313,9.4v7.436l3.25,2.974v1.488Z" transform="translate(2010 816)" fill="#5683ff"/>
    <path id="Trazado_47" data-name="Trazado 47" d="M26.913,4.565H21.435L19.869,3H12.043L10.478,4.565H5V7.7H26.913ZM6.565,9.261V28.043a3.14,3.14,0,0,0,3.13,3.13H22.217a3.14,3.14,0,0,0,3.13-3.13V9.261ZM19.087,20.217v6.261H12.826V20.217H9.7l6.261-6.261,6.261,6.261Z" transform="translate(106 150)" fill="#9e9c9c"/>
    <path id="Trazado_69" data-name="Trazado 69" d="M26.913,4.565H21.435L19.869,3H12.043L10.478,4.565H5V7.7H26.913ZM6.565,9.261V28.043a3.14,3.14,0,0,0,3.13,3.13H22.217a3.14,3.14,0,0,0,3.13-3.13V9.261ZM19.087,20.217v6.261H12.826V20.217H9.7l6.261-6.261,6.261,6.261Z" transform="translate(106 487)" fill="#01cae0"/>
    <path id="Trazado_78" data-name="Trazado 78" d="M26.913,4.565H21.435L19.869,3H12.043L10.478,4.565H5V7.7H26.913ZM6.565,9.261V28.043a3.14,3.14,0,0,0,3.13,3.13H22.217a3.14,3.14,0,0,0,3.13-3.13V9.261ZM19.087,20.217v6.261H12.826V20.217H9.7l6.261-6.261,6.261,6.261Z" transform="translate(107 814)" fill="#5683ff"/>
    <path id="Trazado_48" data-name="Trazado 48" d="M30.025,7.9h-2.95V21.175H7.9v2.95A1.479,1.479,0,0,0,9.375,25.6H25.6l5.9,5.9V9.375A1.479,1.479,0,0,0,30.025,7.9Zm-5.9,8.85V3.475A1.479,1.479,0,0,0,22.65,2H3.475A1.479,1.479,0,0,0,2,3.475v20.65l5.9-5.9H22.65A1.479,1.479,0,0,0,24.125,16.75Z" transform="translate(217 150)" fill="#9e9c9c"/>
    <path id="Trazado_70" data-name="Trazado 70" d="M30.025,7.9h-2.95V21.175H7.9v2.95A1.479,1.479,0,0,0,9.375,25.6H25.6l5.9,5.9V9.375A1.479,1.479,0,0,0,30.025,7.9Zm-5.9,8.85V3.475A1.479,1.479,0,0,0,22.65,2H3.475A1.479,1.479,0,0,0,2,3.475v20.65l5.9-5.9H22.65A1.479,1.479,0,0,0,24.125,16.75Z" transform="translate(217 487)" fill="#01cae0"/>
    <path id="Trazado_76" data-name="Trazado 76" d="M30.025,7.9h-2.95V21.175H7.9v2.95A1.479,1.479,0,0,0,9.375,25.6H25.6l5.9,5.9V9.375A1.479,1.479,0,0,0,30.025,7.9Zm-5.9,8.85V3.475A1.479,1.479,0,0,0,22.65,2H3.475A1.479,1.479,0,0,0,2,3.475v20.65l5.9-5.9H22.65A1.479,1.479,0,0,0,24.125,16.75Z" transform="translate(218 814)" fill="#5683ff"/>
    <path id="Trazado_49" data-name="Trazado 49" d="M15.011,18.162a4.273,4.273,0,0,0,4.276-4.291L19.3,5.291a4.291,4.291,0,0,0-8.581,0v8.581A4.285,4.285,0,0,0,15.011,18.162Zm10.011-4.291H22.591a7.421,7.421,0,0,1-7.58,7.294,7.421,7.421,0,0,1-7.58-7.294H5a9.988,9.988,0,0,0,8.581,9.611v4.691h2.86V23.483A9.988,9.988,0,0,0,25.023,13.872Z" transform="translate(3 243)" fill="#9e9c9c"/>
    <path id="Trazado_73" data-name="Trazado 73" d="M15.011,18.162a4.273,4.273,0,0,0,4.276-4.291L19.3,5.291a4.291,4.291,0,0,0-8.581,0v8.581A4.285,4.285,0,0,0,15.011,18.162Zm10.011-4.291H22.591a7.421,7.421,0,0,1-7.58,7.294,7.421,7.421,0,0,1-7.58-7.294H5a9.988,9.988,0,0,0,8.581,9.611v4.691h2.86V23.483A9.988,9.988,0,0,0,25.023,13.872Z" transform="translate(3 580)" fill="#01cae0"/>
    <path id="Trazado_80" data-name="Trazado 80" d="M15.011,18.162a4.273,4.273,0,0,0,4.276-4.291L19.3,5.291a4.291,4.291,0,0,0-8.581,0v8.581A4.285,4.285,0,0,0,15.011,18.162Zm10.011-4.291H22.591a7.421,7.421,0,0,1-7.58,7.294,7.421,7.421,0,0,1-7.58-7.294H5a9.988,9.988,0,0,0,8.581,9.611v4.691h2.86V23.483A9.988,9.988,0,0,0,25.023,13.872Z" transform="translate(4 907)" fill="#5683ff"/>
    <path id="Trazado_50" data-name="Trazado 50" d="M3,25.844v6.011H9.011L26.741,14.126,20.729,8.115ZM31.389,9.478a1.6,1.6,0,0,0,0-2.26L27.638,3.466a1.6,1.6,0,0,0-2.26,0L22.444,6.4l6.011,6.011,2.933-2.933Z" transform="translate(105 240.002)" fill="#9e9c9c"/>
    <path id="Trazado_71" data-name="Trazado 71" d="M3,25.844v6.011H9.011L26.741,14.126,20.729,8.115ZM31.389,9.478a1.6,1.6,0,0,0,0-2.26L27.638,3.466a1.6,1.6,0,0,0-2.26,0L22.444,6.4l6.011,6.011,2.933-2.933Z" transform="translate(105 577.002)" fill="#01cae0"/>
    <path id="Trazado_77" data-name="Trazado 77" d="M3,25.844v6.011H9.011L26.741,14.126,20.729,8.115ZM31.389,9.478a1.6,1.6,0,0,0,0-2.26L27.638,3.466a1.6,1.6,0,0,0-2.26,0L22.444,6.4l6.011,6.011,2.933-2.933Z" transform="translate(106 904.002)" fill="#5683ff"/>
    <path id="Trazado_51" data-name="Trazado 51" d="M27.207,7.113,23.65,10.65,20.094,7.113,16.537,10.65,12.981,7.113,20.094,0Zm5.867,20.094L29.538,23.65l3.536-3.557-3.536-3.557,3.536-3.557,7.113,7.113ZM12.98,33.074l3.557-3.536,3.557,3.536,3.557-3.536,3.557,3.536-7.113,7.113ZM7.113,12.981l3.536,3.557L7.113,20.094,10.65,23.65,7.113,27.207,0,20.094Z" transform="translate(233.417 229) rotate(45)" fill="#9e9c9c"/>
    <path id="Trazado_68" data-name="Trazado 68" d="M27.207,7.113,23.65,10.65,20.094,7.113,16.537,10.65,12.981,7.113,20.094,0Zm5.867,20.094L29.538,23.65l3.536-3.557-3.536-3.557,3.536-3.557,7.113,7.113ZM12.98,33.074l3.557-3.536,3.557,3.536,3.557-3.536,3.557,3.536-7.113,7.113ZM7.113,12.981l3.536,3.557L7.113,20.094,10.65,23.65,7.113,27.207,0,20.094Z" transform="translate(233.417 566) rotate(45)" fill="#01cae0"/>
    <path id="Trazado_75" data-name="Trazado 75" d="M27.207,7.113,23.65,10.65,20.094,7.113,16.537,10.65,12.981,7.113,20.094,0Zm5.867,20.094L29.538,23.65l3.536-3.557-3.536-3.557,3.536-3.557,7.113,7.113ZM12.98,33.074l3.557-3.536,3.557,3.536,3.557-3.536,3.557,3.536-7.113,7.113ZM7.113,12.981l3.536,3.557L7.113,20.094,10.65,23.65,7.113,27.207,0,20.094Z" transform="translate(234.417 893) rotate(45)" fill="#5683ff"/>
    <text id="Hover" transform="translate(98 355)" fill="#b7b7b7" font-size="16" font-family="SegoeUI-Bold, Segoe UI" font-weight="700"><tspan x="0" y="0">Hover</tspan></text>
    <text id="Active" transform="translate(97 681)" fill="#b7b7b7" font-size="16" font-family="SegoeUI-Bold, Segoe UI" font-weight="700"><tspan x="0" y="0">Active</tspan></text>
    <text id="Documents" transform="translate(84 1004)" fill="#b7b7b7" font-size="16" font-family="SegoeUI-Bold, Segoe UI" font-weight="700"><tspan x="0" y="0">Documents</tspan></text>
    <g id="Elipse_31" data-name="Elipse 31" transform="translate(0 1049)" fill="#ff6e95" stroke="#cf2626" stroke-width="1">
      <circle cx="24" cy="24" r="24" stroke="none"/>
      <circle cx="24" cy="24" r="23.5" fill="none"/>
    </g>
    <circle id="Elipse_32" data-name="Elipse 32" cx="24" cy="24" r="24" transform="translate(102 1049)" fill="#9181ff"/>
    <circle id="Elipse_33" data-name="Elipse 33" cx="24" cy="24" r="24" transform="translate(202 1049)" fill="#69f6b0"/>
    <g id="chat" transform="translate(212.771 1060.01)">
      <path id="Trazado_27" data-name="Trazado 27" d="M0,0H27.937V27.937H0Z" fill="none"/>
      <path id="Trazado_28" data-name="Trazado 28" d="M24.117,6.656H21.789V17.133H6.656v2.328A1.167,1.167,0,0,0,7.82,20.625h12.8l4.656,4.656V7.82A1.167,1.167,0,0,0,24.117,6.656Zm-4.656,6.984V3.164A1.167,1.167,0,0,0,18.3,2H3.164A1.167,1.167,0,0,0,2,3.164v16.3L6.656,14.8H18.3A1.167,1.167,0,0,0,19.461,13.641Z" transform="translate(0.328 0.328)" fill="#10854b"/>
    </g>
    <g id="mail-4" data-name="mail" transform="translate(111.219 1058.021)">
      <path id="Trazado_29" data-name="Trazado 29" d="M0,0H29.49V29.49H0Z" fill="none"/>
      <path id="Trazado_30" data-name="Trazado 30" d="M24.117,4H4.457A2.454,2.454,0,0,0,2.012,6.457L2,21.2A2.465,2.465,0,0,0,4.457,23.66h19.66A2.465,2.465,0,0,0,26.575,21.2V6.457A2.465,2.465,0,0,0,24.117,4Zm0,17.2H4.457V8.915l9.83,6.144,9.83-6.144Zm-9.83-8.6L4.457,6.457h19.66Z" transform="translate(0.457 0.915)" fill="#200da4"/>
    </g>
    <g id="micro" transform="translate(6.115 1056.479)">
      <path id="Trazado_31" data-name="Trazado 31" d="M15.865,19.625a4.637,4.637,0,0,0,4.641-4.656l.016-9.312a4.656,4.656,0,0,0-9.312,0v9.312A4.65,4.65,0,0,0,15.865,19.625Zm10.865-4.656H24.091a8.053,8.053,0,0,1-8.226,7.916,8.053,8.053,0,0,1-8.226-7.916H5A10.839,10.839,0,0,0,14.312,25.4V30.49h3.1V25.4A10.839,10.839,0,0,0,26.729,14.969Z" transform="translate(2.76 0.552)" fill="#b52727"/>
      <path id="Trazado_32" data-name="Trazado 32" d="M0,0H37.25V37.25H0Z" fill="none"/>
    </g>
  </g>
</svg>
