<svg xmlns="http://www.w3.org/2000/svg" xmlns:xlink="http://www.w3.org/1999/xlink" width="1920" height="1080" viewBox="0 0 1920 1080">
  <defs>
    <linearGradient id="linear-gradient" x1="0.5" x2="0.5" y2="1" gradientUnits="objectBoundingBox">
      <stop offset="0" stop-color="#00cbe0"/>
      <stop offset="1" stop-color="#5683ff"/>
    </linearGradient>
    <filter id="Rectángulo_2" x="1165" y="189" width="558" height="714" filterUnits="userSpaceOnUse">
      <feOffset dy="6" input="SourceAlpha"/>
      <feGaussianBlur stdDeviation="3" result="blur"/>
      <feFlood flood-opacity="0.161"/>
      <feComposite operator="in" in2="blur"/>
      <feComposite in="SourceGraphic"/>
    </filter>
    <linearGradient id="linear-gradient-3" y1="-0.177" y2="1.242" xlink:href="#linear-gradient"/>
    <clipPath id="clip-Home_page_High">
      <rect width="1920" height="1080"/>
    </clipPath>
  </defs>
  <g id="Home_page_High" data-name="Home page High" clip-path="url(#clip-Home_page_High)">
    <rect width="1920" height="1080" fill="#fff"/>
    <rect id="Rectángulo_54" data-name="Rectángulo 54" width="972" height="1080" transform="translate(948)" fill="#f5f5f5"/>
    <path id="Sustracción_13" data-name="Sustracción 13" d="M83.5,167A83.522,83.522,0,0,1,51,6.562a83.522,83.522,0,0,1,65,153.877A82.98,82.98,0,0,1,83.5,167Zm0-141.616A58.116,58.116,0,1,0,141.616,83.5,58.181,58.181,0,0,0,83.5,25.384Z" transform="translate(876 829)" fill="#f1f1f1"/>
    <path id="Sustracción_14" data-name="Sustracción 14" d="M254,508A254.067,254.067,0,0,1,155.13,19.96,254.066,254.066,0,0,1,352.868,488.04,252.417,252.417,0,0,1,254,508Zm0-430.785C156.52,77.216,77.216,156.52,77.216,254S156.52,430.785,254,430.785,430.785,351.478,430.785,254,351.478,77.216,254,77.216Z" transform="translate(1564 -143)" fill="#f1f1f1"/>
    <rect id="Rectángulo_1" data-name="Rectángulo 1" width="960" height="1080" fill="url(#linear-gradient)"/>
    <g transform="matrix(1, 0, 0, 1, 0, 0)" filter="url(#Rectángulo_2)">
      <g id="Rectángulo_2-2" data-name="Rectángulo 2" transform="translate(1174 192)" fill="#fff" stroke="#5683ff" stroke-width="2">
        <rect width="540" height="696" rx="20" stroke="none"/>
        <rect x="1" y="1" width="538" height="694" rx="19" fill="none"/>
      </g>
    </g>
    <text id="Login" transform="translate(1399 293)" fill="#707070" font-size="34" font-family="SegoeUI-Bold, Segoe UI" font-weight="700"><tspan x="0" y="0">Login</tspan></text>
    <text id="Busca_-_Analiza_-_Predice" data-name="Busca - Analiza - Predice" transform="translate(376 618)" fill="#fff" font-size="18" font-family="SegoeUI, Segoe UI"><tspan x="0" y="0">Busca - Analiza - Predice</tspan></text>
    <text id="Correo_" data-name="Correo *" transform="translate(1273 456)" fill="#c9c9c9" font-size="24" font-family="SegoeUI-Bold, Segoe UI" font-weight="700"><tspan x="0" y="0">Correo *</tspan></text>
    <text id="Contraseña_" data-name="Contraseña  *" transform="translate(1273 539)" fill="#c9c9c9" font-size="24" font-family="SegoeUI-Bold, Segoe UI" font-weight="700"><tspan x="0" y="0" xml:space="preserve">Contraseña  *</tspan></text>
    <rect id="Rectángulo_3" data-name="Rectángulo 3" width="89" height="12" transform="translate(1399 313)" fill="url(#linear-gradient)"/>
    <rect id="Rectángulo_9" data-name="Rectángulo 9" width="89" height="12" transform="translate(429 876)" fill="#fff"/>
    <rect id="Rectángulo_4" data-name="Rectángulo 4" width="195" height="62" rx="5" transform="translate(1346 637)" fill="url(#linear-gradient-3)"/>
    <line id="Línea_1" data-name="Línea 1" x2="374" transform="translate(1272.5 477.5)" fill="none" stroke="#707070" stroke-width="1"/>
    <line id="Línea_2" data-name="Línea 2" x2="374" transform="translate(1272.5 557.5)" fill="none" stroke="#707070" stroke-width="1"/>
    <g id="Grupo_1" data-name="Grupo 1" transform="translate(-25 117)">
      <text id="Olvidaste_tu_contraseña_" data-name="Olvidaste tu contraseña?" transform="translate(1370 681)" fill="#aeabab" font-size="18" font-family="SegoeUI, Segoe UI"><tspan x="0" y="0">Olvidaste tu contraseña?</tspan></text>
      <line id="Línea_3" data-name="Línea 3" x2="197" transform="translate(1370.5 686.5)" fill="none" stroke="#707070" stroke-width="1"/>
    </g>
    <text id="Login-2" data-name="Login" transform="translate(1414 675)" fill="#fff" font-size="24" font-family="SegoeUI, Segoe UI"><tspan x="0" y="0">Login</tspan></text>
    <text id="Anewlytics" transform="translate(295 552)" fill="#fff" font-size="51" font-family="SegoeUI, Segoe UI" letter-spacing="0.259em"><tspan x="0" y="0">Anewlytics</tspan></text>
    <path id="Sustracción_12" data-name="Sustracción 12" d="M114.5,206.97a102.835,102.835,0,0,1-40.287-8.133c-1.3-.548-2.6-1.132-3.882-1.736l8.32-14.41a5.012,5.012,0,0,0-1.8-6.814l4.8-8.309a71.094,71.094,0,0,0,32.854,7.938A72.036,72.036,0,0,0,117,31.477V0a103.467,103.467,0,0,1,70.686,176.656A103.176,103.176,0,0,1,114.5,206.97ZM46.72,181.695h0c-1.856-1.612-3.674-3.308-5.4-5.039a103.165,103.165,0,0,1-30.3-71.685H42.48a72.313,72.313,0,0,0,24.107,52.248l-5.514,9.55a5,5,0,0,0-6.8,1.847l-7.55,13.079ZM42.6,98.971H11.095A103.406,103.406,0,0,1,111,.028V31.519A71.876,71.876,0,0,0,42.6,98.97Z" transform="translate(365 253.029)" fill="#fff"/>
    <g id="candado" transform="translate(1215 519)">
      <path id="Trazado_5" data-name="Trazado 5" d="M18,8H17V6A5,5,0,0,0,7,6V8H6a2.006,2.006,0,0,0-2,2V20a2.006,2.006,0,0,0,2,2H18a2.006,2.006,0,0,0,2-2V10A2.006,2.006,0,0,0,18,8Zm-6,9a2,2,0,1,1,2-2A2.006,2.006,0,0,1,12,17Zm3.1-9H8.9V6a3.1,3.1,0,0,1,6.2,0Z" fill="#9e9c9c"/>
    </g>
    <g id="mail" transform="translate(1215 435)">
      <path id="Trazado_7" data-name="Trazado 7" d="M20,4H4A2,2,0,0,0,2.01,6L2,18a2.006,2.006,0,0,0,2,2H20a2.006,2.006,0,0,0,2-2V6A2.006,2.006,0,0,0,20,4Zm0,14H4V8l8,5,8-5Zm-8-7L4,6H20Z" fill="#9e9c9c"/>
    </g>
  </g>
</svg>
