<svg xmlns="http://www.w3.org/2000/svg" xmlns:xlink="http://www.w3.org/1999/xlink" width="1100" height="690" viewBox="0 0 1100 690">
  <defs>
    <clipPath id="clip-Iconos">
      <rect width="1100" height="690"/>
    </clipPath>
  </defs>
  <g id="Iconos" clip-path="url(#clip-Iconos)">
    <rect width="1100" height="690" fill="#fff"/>
    <g id="Grupo_11" data-name="Grupo 11" transform="translate(0 52)">
      <g id="mail" transform="translate(103 78)">
        <path id="Trazado_7" data-name="Trazado 7" d="M34.063,4H5.563A3.558,3.558,0,0,0,2.018,7.563L2,28.938A3.573,3.573,0,0,0,5.563,32.5h28.5a3.573,3.573,0,0,0,3.563-3.562V7.563A3.573,3.573,0,0,0,34.063,4Zm0,24.938H5.563V11.125l14.25,8.906,14.25-8.906ZM19.813,16.469,5.563,7.563h28.5Z" fill="#9e9c9c"/>
      </g>
      <g id="candado" transform="translate(214 81)">
        <path id="Trazado_5" data-name="Trazado 5" d="M23.333,10.667H21.952V7.9a6.9,6.9,0,1,0-13.81,0v2.762H6.762A2.77,2.77,0,0,0,4,13.429v13.81A2.77,2.77,0,0,0,6.762,30H23.333A2.77,2.77,0,0,0,26.1,27.238V13.429A2.77,2.77,0,0,0,23.333,10.667ZM15.048,23.1a2.762,2.762,0,1,1,2.762-2.762A2.77,2.77,0,0,1,15.048,23.1Zm4.281-12.429H10.767V7.9a4.281,4.281,0,0,1,8.562,0Z" fill="#9e9c9c"/>
      </g>
      <path id="Trazado_46" data-name="Trazado 46" d="M23.85,21.348H22.533l-.467-.45A10.859,10.859,0,1,0,20.9,22.066l.45.467V23.85l8.34,8.323,2.485-2.485Zm-10.008,0a7.506,7.506,0,1,1,7.506-7.506A7.5,7.5,0,0,1,13.842,21.348Z" transform="translate(314.125 79)" fill="#9e9c9c"/>
      <path id="Unión_16" data-name="Unión 16" d="M-1994.25,26.026h6.5A3.13,3.13,0,0,1-1991,29,3.121,3.121,0,0,1-1994.25,26.026Zm-9.75-1.487V23.051l3.251-2.974V12.641c0-4.58,2.648-8.388,7.313-9.4V2.231A2.338,2.338,0,0,1-1991,0a2.338,2.338,0,0,1,2.438,2.231V3.242a9.177,9.177,0,0,1,7.313,9.4v7.436l3.25,2.974v1.488Z" transform="translate(2419 82)" fill="#9e9c9c"/>
      <path id="Trazado_47" data-name="Trazado 47" d="M26.913,4.565H21.435L19.869,3H12.043L10.478,4.565H5V7.7H26.913ZM6.565,9.261V28.043a3.14,3.14,0,0,0,3.13,3.13H22.217a3.14,3.14,0,0,0,3.13-3.13V9.261ZM19.087,20.217v6.261H12.826V20.217H9.7l6.261-6.261,6.261,6.261Z" transform="translate(514 80)" fill="#9e9c9c"/>
      <path id="Trazado_48" data-name="Trazado 48" d="M30.025,7.9h-2.95V21.175H7.9v2.95A1.479,1.479,0,0,0,9.375,25.6H25.6l5.9,5.9V9.375A1.479,1.479,0,0,0,30.025,7.9Zm-5.9,8.85V3.475A1.479,1.479,0,0,0,22.65,2H3.475A1.479,1.479,0,0,0,2,3.475v20.65l5.9-5.9H22.65A1.479,1.479,0,0,0,24.125,16.75Z" transform="translate(622.5 80)" fill="#9e9c9c"/>
      <path id="Trazado_49" data-name="Trazado 49" d="M15.011,18.162a4.273,4.273,0,0,0,4.276-4.291L19.3,5.291a4.291,4.291,0,0,0-8.581,0v8.581A4.285,4.285,0,0,0,15.011,18.162Zm10.011-4.291H22.591a7.421,7.421,0,0,1-7.58,7.294,7.421,7.421,0,0,1-7.58-7.294H5a9.988,9.988,0,0,0,8.581,9.611v4.691h2.86V23.483A9.988,9.988,0,0,0,25.023,13.872Z" transform="translate(733.042 82)" fill="#9e9c9c"/>
      <path id="Trazado_50" data-name="Trazado 50" d="M3,25.844v6.011H9.011L26.741,14.126,20.729,8.115ZM31.389,9.478a1.6,1.6,0,0,0,0-2.26L27.638,3.466a1.6,1.6,0,0,0-2.26,0L22.444,6.4l6.011,6.011,2.933-2.933Z" transform="translate(837.694 79.003)" fill="#9e9c9c"/>
      <path id="Trazado_51" data-name="Trazado 51" d="M27.207,7.113,23.65,10.65,20.094,7.113,16.537,10.65,12.981,7.113,20.094,0Zm5.867,20.094L29.538,23.65l3.536-3.557-3.536-3.557,3.536-3.557,7.113,7.113ZM12.98,33.074l3.557-3.536,3.557,3.536,3.557-3.536,3.557,3.536-7.113,7.113ZM7.113,12.981l3.536,3.557L7.113,20.094,10.65,23.65,7.113,27.207,0,20.094Z" transform="translate(967.292 68) rotate(45)" fill="#9e9c9c"/>
    </g>
    <g id="Grupo_12" data-name="Grupo 12" transform="translate(0 245)">
      <g id="mail-2" data-name="mail" transform="translate(103 78)">
        <path id="Trazado_7-2" data-name="Trazado 7" d="M34.063,4H5.563A3.558,3.558,0,0,0,2.018,7.563L2,28.938A3.573,3.573,0,0,0,5.563,32.5h28.5a3.573,3.573,0,0,0,3.563-3.562V7.563A3.573,3.573,0,0,0,34.063,4Zm0,24.938H5.563V11.125l14.25,8.906,14.25-8.906ZM19.813,16.469,5.563,7.563h28.5Z" fill="#00cbe0"/>
      </g>
      <g id="candado-2" data-name="candado" transform="translate(214 81)">
        <path id="Trazado_5-2" data-name="Trazado 5" d="M23.333,10.667H21.952V7.9a6.9,6.9,0,1,0-13.81,0v2.762H6.762A2.77,2.77,0,0,0,4,13.429v13.81A2.77,2.77,0,0,0,6.762,30H23.333A2.77,2.77,0,0,0,26.1,27.238V13.429A2.77,2.77,0,0,0,23.333,10.667ZM15.048,23.1a2.762,2.762,0,1,1,2.762-2.762A2.77,2.77,0,0,1,15.048,23.1Zm4.281-12.429H10.767V7.9a4.281,4.281,0,0,1,8.562,0Z" fill="#00cbe0"/>
      </g>
      <path id="Trazado_46-2" data-name="Trazado 46" d="M23.85,21.348H22.533l-.467-.45A10.859,10.859,0,1,0,20.9,22.066l.45.467V23.85l8.34,8.323,2.485-2.485Zm-10.008,0a7.506,7.506,0,1,1,7.506-7.506A7.5,7.5,0,0,1,13.842,21.348Z" transform="translate(314.125 79)" fill="#00cbe0"/>
      <path id="Unión_16-2" data-name="Unión 16" d="M-1994.25,26.026h6.5A3.13,3.13,0,0,1-1991,29,3.121,3.121,0,0,1-1994.25,26.026Zm-9.75-1.487V23.051l3.251-2.974V12.641c0-4.58,2.648-8.388,7.313-9.4V2.231A2.338,2.338,0,0,1-1991,0a2.338,2.338,0,0,1,2.438,2.231V3.242a9.177,9.177,0,0,1,7.313,9.4v7.436l3.25,2.974v1.488Z" transform="translate(2419 82)" fill="#00cbe0"/>
      <path id="Trazado_47-2" data-name="Trazado 47" d="M26.913,4.565H21.435L19.869,3H12.043L10.478,4.565H5V7.7H26.913ZM6.565,9.261V28.043a3.14,3.14,0,0,0,3.13,3.13H22.217a3.14,3.14,0,0,0,3.13-3.13V9.261ZM19.087,20.217v6.261H12.826V20.217H9.7l6.261-6.261,6.261,6.261Z" transform="translate(514 80)" fill="#00cbe0"/>
      <path id="Trazado_48-2" data-name="Trazado 48" d="M30.025,7.9h-2.95V21.175H7.9v2.95A1.479,1.479,0,0,0,9.375,25.6H25.6l5.9,5.9V9.375A1.479,1.479,0,0,0,30.025,7.9Zm-5.9,8.85V3.475A1.479,1.479,0,0,0,22.65,2H3.475A1.479,1.479,0,0,0,2,3.475v20.65l5.9-5.9H22.65A1.479,1.479,0,0,0,24.125,16.75Z" transform="translate(622.5 80)" fill="#00cbe0"/>
      <path id="Trazado_49-2" data-name="Trazado 49" d="M15.011,18.162a4.273,4.273,0,0,0,4.276-4.291L19.3,5.291a4.291,4.291,0,0,0-8.581,0v8.581A4.285,4.285,0,0,0,15.011,18.162Zm10.011-4.291H22.591a7.421,7.421,0,0,1-7.58,7.294,7.421,7.421,0,0,1-7.58-7.294H5a9.988,9.988,0,0,0,8.581,9.611v4.691h2.86V23.483A9.988,9.988,0,0,0,25.023,13.872Z" transform="translate(733.042 82)" fill="#00cbe0"/>
      <path id="Trazado_50-2" data-name="Trazado 50" d="M3,25.844v6.011H9.011L26.741,14.126,20.729,8.115ZM31.389,9.478a1.6,1.6,0,0,0,0-2.26L27.638,3.466a1.6,1.6,0,0,0-2.26,0L22.444,6.4l6.011,6.011,2.933-2.933Z" transform="translate(837.694 79.003)" fill="#00cbe0"/>
      <path id="Trazado_51-2" data-name="Trazado 51" d="M27.207,7.113,23.65,10.65,20.094,7.113,16.537,10.65,12.981,7.113,20.094,0Zm5.867,20.094L29.538,23.65l3.536-3.557-3.536-3.557,3.536-3.557,7.113,7.113ZM12.98,33.074l3.557-3.536,3.557,3.536,3.557-3.536,3.557,3.536-7.113,7.113ZM7.113,12.981l3.536,3.557L7.113,20.094,10.65,23.65,7.113,27.207,0,20.094Z" transform="translate(967.292 68) rotate(45)" fill="#00cbe0"/>
    </g>
    <g id="Grupo_13" data-name="Grupo 13" transform="translate(0 438)">
      <g id="mail-3" data-name="mail" transform="translate(103 78)">
        <path id="Trazado_7-3" data-name="Trazado 7" d="M34.063,4H5.563A3.558,3.558,0,0,0,2.018,7.563L2,28.938A3.573,3.573,0,0,0,5.563,32.5h28.5a3.573,3.573,0,0,0,3.563-3.562V7.563A3.573,3.573,0,0,0,34.063,4Zm0,24.938H5.563V11.125l14.25,8.906,14.25-8.906ZM19.813,16.469,5.563,7.563h28.5Z" fill="#5683ff"/>
      </g>
      <g id="candado-3" data-name="candado" transform="translate(214 81)">
        <path id="Trazado_5-3" data-name="Trazado 5" d="M23.333,10.667H21.952V7.9a6.9,6.9,0,1,0-13.81,0v2.762H6.762A2.77,2.77,0,0,0,4,13.429v13.81A2.77,2.77,0,0,0,6.762,30H23.333A2.77,2.77,0,0,0,26.1,27.238V13.429A2.77,2.77,0,0,0,23.333,10.667ZM15.048,23.1a2.762,2.762,0,1,1,2.762-2.762A2.77,2.77,0,0,1,15.048,23.1Zm4.281-12.429H10.767V7.9a4.281,4.281,0,0,1,8.562,0Z" fill="#5683ff"/>
      </g>
      <path id="Trazado_46-3" data-name="Trazado 46" d="M23.85,21.348H22.533l-.467-.45A10.859,10.859,0,1,0,20.9,22.066l.45.467V23.85l8.34,8.323,2.485-2.485Zm-10.008,0a7.506,7.506,0,1,1,7.506-7.506A7.5,7.5,0,0,1,13.842,21.348Z" transform="translate(314.125 79)" fill="#5683ff"/>
      <path id="Unión_16-3" data-name="Unión 16" d="M-1994.25,26.026h6.5A3.13,3.13,0,0,1-1991,29,3.121,3.121,0,0,1-1994.25,26.026Zm-9.75-1.487V23.051l3.251-2.974V12.641c0-4.58,2.648-8.388,7.313-9.4V2.231A2.338,2.338,0,0,1-1991,0a2.338,2.338,0,0,1,2.438,2.231V3.242a9.177,9.177,0,0,1,7.313,9.4v7.436l3.25,2.974v1.488Z" transform="translate(2419 82)" fill="#5683ff"/>
      <path id="Trazado_47-3" data-name="Trazado 47" d="M26.913,4.565H21.435L19.869,3H12.043L10.478,4.565H5V7.7H26.913ZM6.565,9.261V28.043a3.14,3.14,0,0,0,3.13,3.13H22.217a3.14,3.14,0,0,0,3.13-3.13V9.261ZM19.087,20.217v6.261H12.826V20.217H9.7l6.261-6.261,6.261,6.261Z" transform="translate(514 80)" fill="#5683ff"/>
      <path id="Trazado_48-3" data-name="Trazado 48" d="M30.025,7.9h-2.95V21.175H7.9v2.95A1.479,1.479,0,0,0,9.375,25.6H25.6l5.9,5.9V9.375A1.479,1.479,0,0,0,30.025,7.9Zm-5.9,8.85V3.475A1.479,1.479,0,0,0,22.65,2H3.475A1.479,1.479,0,0,0,2,3.475v20.65l5.9-5.9H22.65A1.479,1.479,0,0,0,24.125,16.75Z" transform="translate(622.5 80)" fill="#5683ff"/>
      <path id="Trazado_49-3" data-name="Trazado 49" d="M15.011,18.162a4.273,4.273,0,0,0,4.276-4.291L19.3,5.291a4.291,4.291,0,0,0-8.581,0v8.581A4.285,4.285,0,0,0,15.011,18.162Zm10.011-4.291H22.591a7.421,7.421,0,0,1-7.58,7.294,7.421,7.421,0,0,1-7.58-7.294H5a9.988,9.988,0,0,0,8.581,9.611v4.691h2.86V23.483A9.988,9.988,0,0,0,25.023,13.872Z" transform="translate(733.042 82)" fill="#5683ff"/>
      <path id="Trazado_50-3" data-name="Trazado 50" d="M3,25.844v6.011H9.011L26.741,14.126,20.729,8.115ZM31.389,9.478a1.6,1.6,0,0,0,0-2.26L27.638,3.466a1.6,1.6,0,0,0-2.26,0L22.444,6.4l6.011,6.011,2.933-2.933Z" transform="translate(837.694 79.003)" fill="#5683ff"/>
      <path id="Trazado_51-3" data-name="Trazado 51" d="M27.207,7.113,23.65,10.65,20.094,7.113,16.537,10.65,12.981,7.113,20.094,0Zm5.867,20.094L29.538,23.65l3.536-3.557-3.536-3.557,3.536-3.557,7.113,7.113ZM12.98,33.074l3.557-3.536,3.557,3.536,3.557-3.536,3.557,3.536-7.113,7.113ZM7.113,12.981l3.536,3.557L7.113,20.094,10.65,23.65,7.113,27.207,0,20.094Z" transform="translate(967.292 68) rotate(45)" fill="#5683ff"/>
    </g>
    <text id="Normal" transform="translate(105 72)" fill="#9e9c9c" font-size="20" font-family="SegoeUI-Bold, Segoe UI" font-weight="700"><tspan x="0" y="0">Normal</tspan></text>
    <text id="Hover" transform="translate(105 265)" fill="#9e9c9c" font-size="20" font-family="SegoeUI-Bold, Segoe UI" font-weight="700"><tspan x="0" y="0">Hover</tspan></text>
    <text id="Active" transform="translate(105 458)" fill="#9e9c9c" font-size="20" font-family="SegoeUI-Bold, Segoe UI" font-weight="700"><tspan x="0" y="0">Active</tspan></text>
    <line id="Línea_49" data-name="Línea 49" x2="66" transform="translate(105.5 91.5)" fill="none" stroke="#707070" stroke-width="1"/>
    <line id="Línea_50" data-name="Línea 50" x2="54" transform="translate(105.5 284.5)" fill="none" stroke="#707070" stroke-width="1"/>
    <line id="Línea_51" data-name="Línea 51" x2="57" transform="translate(105.5 477.5)" fill="none" stroke="#707070" stroke-width="1"/>
  </g>
</svg>
