<svg xmlns="http://www.w3.org/2000/svg" xmlns:xlink="http://www.w3.org/1999/xlink" width="592" height="681" viewBox="0 0 592 681">
  <defs>
    <linearGradient id="linear-gradient" x1="0.5" x2="0.5" y2="1" gradientUnits="objectBoundingBox">
      <stop offset="0" stop-color="#00cbe0"/>
      <stop offset="1" stop-color="#5683ff"/>
    </linearGradient>
    <clipPath id="clip-Logo_positivo">
      <rect width="592" height="681"/>
    </clipPath>
  </defs>
  <g id="Logo_positivo" data-name="Logo positivo" clip-path="url(#clip-Logo_positivo)">
    <rect width="592" height="681" fill="#fff"/>
    <g id="Grupo_10" data-name="Grupo 10" transform="translate(1 99)">
      <path id="Sustracción_53" data-name="Sustracción 53" d="M114.5,206.97a102.835,102.835,0,0,1-40.287-8.133c-1.3-.548-2.6-1.132-3.882-1.736l8.32-14.41a5.012,5.012,0,0,0-1.8-6.814l4.8-8.309a71.094,71.094,0,0,0,32.854,7.938A72.036,72.036,0,0,0,117,31.477V0a103.467,103.467,0,0,1,70.686,176.656A103.176,103.176,0,0,1,114.5,206.97ZM46.72,181.695h0c-1.856-1.612-3.674-3.308-5.4-5.039a103.165,103.165,0,0,1-30.3-71.685H42.48a72.313,72.313,0,0,0,24.107,52.248l-5.514,9.55a5,5,0,0,0-6.8,1.847l-7.55,13.079ZM42.6,98.971H11.095A103.406,103.406,0,0,1,111,.028V31.519A71.876,71.876,0,0,0,42.6,98.97Z" transform="translate(180 63.029)" fill="url(#linear-gradient)"/>
      <text id="Busca_-_Analiza_-_Predice" data-name="Busca - Analiza - Predice" transform="translate(198 415)" fill="#545454" font-size="18" font-family="SegoeUI, Segoe UI"><tspan x="0" y="0">Busca - Analiza - Predice</tspan></text>
      <text id="Anewlytics" transform="translate(117 349)" fill="#545454" font-size="51" font-family="SegoeUI, Segoe UI" letter-spacing="0.259em"><tspan x="0" y="0">Anewlytics</tspan></text>
    </g>
  </g>
</svg>
