<svg xmlns="http://www.w3.org/2000/svg" xmlns:xlink="http://www.w3.org/1999/xlink" width="1920" height="1080" viewBox="0 0 1920 1080">
  <defs>
    <linearGradient id="linear-gradient" x1="0.5" x2="0.5" y2="1" gradientUnits="objectBoundingBox">
      <stop offset="0" stop-color="#00cbe0"/>
      <stop offset="1" stop-color="#5683ff"/>
    </linearGradient>
    <filter id="Rectángulo_12" x="-9" y="-3" width="1938" height="110" filterUnits="userSpaceOnUse">
      <feOffset dy="6" input="SourceAlpha"/>
      <feGaussianBlur stdDeviation="3" result="blur"/>
      <feFlood flood-opacity="0.102"/>
      <feComposite operator="in" in2="blur"/>
      <feComposite in="SourceGraphic"/>
    </filter>
    <clipPath id="clip-welcome_1">
      <rect width="1920" height="1080"/>
    </clipPath>
  </defs>
  <g id="welcome_1" data-name="welcome – 1" clip-path="url(#clip-welcome_1)">
    <rect width="1920" height="1080" fill="#fff"/>
    <rect id="Rectángulo_40" data-name="Rectángulo 40" width="1920" height="1080" fill="#f5f5f5"/>
    <path id="Sustracción_22" data-name="Sustracción 22" d="M195.5,367.978a183.766,183.766,0,0,1-71.817-14.461c-2.307-.972-4.64-2.012-6.932-3.092l6.736-11.641a24.957,24.957,0,0,0,1.9-20.927l11.535-19.938A128.812,128.812,0,0,0,195.5,312.037c70.81,0,128.417-57.454,128.417-128.075a127.706,127.706,0,0,0-123.96-128V0A184.011,184.011,0,0,1,195.5,367.978ZM74.672,323.045h0c-3.3-2.856-6.541-5.871-9.64-8.963A183.178,183.178,0,0,1,11.011,186.63h56.1a128.428,128.428,0,0,0,42.978,92.9l-12.8,22.121a25.05,25.05,0,0,0-17.243,12.111l-5.373,9.286ZM67.326,175.964H11.161A184.232,184.232,0,0,1,189.257.052V56.039A127.967,127.967,0,0,0,67.326,175.963Z" transform="translate(1645 808)" fill="#ecebeb"/>
    <path id="Sustracción_26" data-name="Sustracción 26" d="M48,73.978A36.768,36.768,0,0,1,33.6,71.07c-.463-.2-.93-.4-1.39-.622l1.351-2.34a5.029,5.029,0,0,0,.381-4.207l2.313-4.008A25.747,25.747,0,1,0,48.9,11.252V0A37,37,0,0,1,62.405,71.07,36.769,36.769,0,0,1,48,73.978ZM23.776,64.945h0c-.661-.574-1.312-1.18-1.933-1.8A36.871,36.871,0,0,1,11.011,37.521H22.259A25.846,25.846,0,0,0,30.878,56.2l-2.566,4.447a5.023,5.023,0,0,0-3.458,2.435l-1.077,1.867ZM22.3,35.376H11.041A36.963,36.963,0,0,1,46.753.012V11.267A25.692,25.692,0,0,0,22.3,35.376Z" transform="translate(99 164)" fill="#ecebeb"/>
    <text id="En_nombre_de_todo_el_equipo_de_anewlytics_queremos_darte_la_bienvenida_y_guiarte_paso_a_paso_para_que_te_familiarices_con_todas_las_herramientas_disponibles." data-name="En nombre de todo el equipo de anewlytics queremos darte la bienvenida y guiarte
paso a paso para que te familiarices con todas las herramientas disponibles." transform="translate(960 590)" fill="#9e9c9c" font-size="20" font-family="SegoeUI, Segoe UI"><tspan x="-367.041" y="0">En nombre de todo el equipo de anewlytics queremos darte la bienvenida y guiarte</tspan><tspan x="-333.706" y="27">paso a paso para que te familiarices con todas las herramientas disponibles.</tspan></text>
    <g id="campana_de_notificacion" data-name="campana de notificacion" transform="translate(1155 383.5)">
      <path id="Trazado_19" data-name="Trazado 19" d="M0,0H44V45.5H0Z" fill="none"/>
    </g>
    <text id="_Bienvenido_" data-name="¡Bienvenido!" transform="translate(676 474)" fill="#707070" font-size="96" font-family="SegoeUI-Bold, Segoe UI" font-weight="700"><tspan x="0" y="0">¡Bienvenido!</tspan></text>
    <rect id="Rectángulo_32" data-name="Rectángulo 32" width="89" height="12" transform="translate(916 520)" fill="url(#linear-gradient)"/>
    <g id="Componente_1_9" data-name="Componente 1 – 9">
      <g transform="matrix(1, 0, 0, 1, 0, 0)" filter="url(#Rectángulo_12)">
        <rect id="Rectángulo_12-2" data-name="Rectángulo 12" width="1920" height="92" fill="#fff"/>
      </g>
      <g id="Grupo_3" data-name="Grupo 3">
        <rect id="Rectángulo_35" data-name="Rectángulo 35" width="327" height="92" fill="#fff"/>
        <path id="Sustracción_18" data-name="Sustracción 18" d="M26,29.97a14.912,14.912,0,0,1-5.837-1.177c-.2-.085-.39-.169-.563-.252l.547-.948a2.043,2.043,0,0,0,.155-1.705l.938-1.623A10.309,10.309,0,0,0,26,25.414a10.431,10.431,0,0,0,.363-20.857V0A14.987,14.987,0,0,1,26,29.97Zm-9.819-3.659h0c-.27-.234-.533-.479-.783-.729A14.93,14.93,0,0,1,11.01,15.2H15.57a10.469,10.469,0,0,0,3.493,7.566l-1.04,1.8a2.037,2.037,0,0,0-1.4.986l-.436.755Zm-.6-11.979H11.023A14.979,14.979,0,0,1,25.5,0V4.564a10.41,10.41,0,0,0-9.91,9.767Z" transform="translate(48 31)" fill="url(#linear-gradient)"/>
        <text id="Anewlytics" transform="translate(106 55)" fill="#545454" font-size="21" font-family="SegoeUI, Segoe UI" letter-spacing="0.259em"><tspan x="0" y="0">Anewlytics</tspan></text>
      </g>
      <text id="Nombre_usuario" data-name="Nombre usuario" transform="translate(1557 55)" fill="#545454" font-size="20" font-family="SegoeUI, Segoe UI"><tspan x="0" y="0">Nombre usuario</tspan></text>
      <circle id="Elipse_29" data-name="Elipse 29" cx="15" cy="15" r="15" transform="translate(1502 31)" fill="#707070"/>
      <text id="N" transform="translate(1509 53)" fill="#fff" font-size="20" font-family="SegoeUI, Segoe UI"><tspan x="0" y="0">N</tspan></text>
      <line id="Línea_8" data-name="Línea 8" y1="92" transform="translate(1786.5 0.5)" fill="none" stroke="#9e9c9c" stroke-width="0.5"/>
      <line id="Línea_10" data-name="Línea 10" y1="92" transform="translate(1282.5 0.5)" fill="none" stroke="#9e9c9c" stroke-width="1"/>
      <line id="Línea_11" data-name="Línea 11" y1="92" transform="translate(326.5 0.5)" fill="none" stroke="#9e9c9c" stroke-width="0.5"/>
      <g id="Grupo_2" data-name="Grupo 2" transform="translate(69.063 -120)">
        <rect id="Rectángulo_27" data-name="Rectángulo 27" width="44" height="5" transform="translate(1762.938 153)" fill="#9e9c9c"/>
        <rect id="Rectángulo_29" data-name="Rectángulo 29" width="44" height="5" transform="translate(1762.938 175)" fill="#9e9c9c"/>
        <rect id="Rectángulo_31" data-name="Rectángulo 31" width="44" height="5" transform="translate(1762.938 164)" fill="#9e9c9c"/>
      </g>
      <g id="lupa" transform="translate(430 33)">
        <path id="Trazado_16" data-name="Trazado 16" d="M20.188,18.125H19.1l-.385-.371a8.951,8.951,0,1,0-.963.963l.371.385v1.086L25,27.049,27.049,25Zm-8.25,0a6.188,6.188,0,1,1,6.188-6.187A6.179,6.179,0,0,1,11.938,18.125Z" transform="translate(1.125 1.125)" fill="#707070"/>
        <path id="Trazado_17" data-name="Trazado 17" d="M0,0H33V33H0Z" fill="none"/>
      </g>
      <line id="Línea_9" data-name="Línea 9" x2="710" transform="translate(467.5 66.5)" fill="none" stroke="#9e9c9c" stroke-width="1"/>
      <text id="X" transform="translate(1167 56)" fill="#9e9c9c" font-size="18" font-family="SegoeUI, Segoe UI"><tspan x="0" y="0">X</tspan></text>
      <path id="Unión_8" data-name="Unión 8" d="M-1995.75,22.436h5.5A2.669,2.669,0,0,1-1993,25,2.661,2.661,0,0,1-1995.75,22.436Zm-8.25-1.282V19.872l2.751-2.564V10.9c0-3.948,2.241-7.231,6.188-8.1V1.923A1.994,1.994,0,0,1-1993,0a1.994,1.994,0,0,1,2.063,1.923v.872a7.885,7.885,0,0,1,6.188,8.1v6.41l2.75,2.564v1.282Z" transform="translate(3390 36)" fill="#707070"/>
      <circle id="Elipse_30" data-name="Elipse 30" cx="12.5" cy="12.5" r="12.5" transform="translate(1396 22)" fill="url(#linear-gradient)"/>
      <text id="_5" data-name="5" transform="translate(1403 41)" fill="#fff" font-size="20" font-family="SegoeUI, Segoe UI"><tspan x="0" y="0">5</tspan></text>
    </g>
    <rect id="Rectángulo_64" data-name="Rectángulo 64" width="1920" height="987" transform="translate(0 92)" fill="rgba(59,59,59,0.69)"/>
    <g id="Rectángulo_65" data-name="Rectángulo 65" transform="translate(1 92)" fill="#fff" stroke="#9e9c9c" stroke-width="0.5">
      <rect width="328" height="988" stroke="none"/>
      <rect x="0.25" y="0.25" width="327.5" height="987.5" fill="none"/>
    </g>
    <text id="Dashboard" transform="translate(117 182)" fill="#545454" font-size="20" font-family="SegoeUI, Segoe UI"><tspan x="0" y="0">Dashboard</tspan></text>
    <text id="Búsquedas" transform="translate(118 239)" fill="#545454" font-size="20" font-family="SegoeUI, Segoe UI"><tspan x="0" y="0">Búsquedas</tspan></text>
  </g>
</svg>
