<?xml version="1.0" encoding="utf-8"?>
<!-- Generator: Adobe Illustrator 21.0.2, SVG Export Plug-In . SVG Version: 6.00 Build 0)  -->
<svg version="1.1" id="Layer_1" xmlns="http://www.w3.org/2000/svg" xmlns:xlink="http://www.w3.org/1999/xlink" x="0px" y="0px"
	 viewBox="0 0 1648 756.9" style="enable-background:new 0 0 1648 756.9;" xml:space="preserve">
<style type="text/css">
	.st0{opacity:0.5;fill:#1C1C1C;}
	.st1{opacity:0.26;fill:#1C1C1C;}
	.st2{fill:#313131;stroke:#6C6E70;stroke-width:2;stroke-miterlimit:10;}
	.st3{fill:none;stroke:#6C6E70;stroke-width:2;stroke-miterlimit:10;}
	.st4{fill:#313131;stroke:#FF2664;stroke-width:2;stroke-miterlimit:10;}
	.st5{fill:#313131;stroke:#01CAE0;stroke-width:2;stroke-miterlimit:10;}
	.st6{fill:#01CAE0;}
	.st7{fill:none;stroke:#FF2664;stroke-width:2;stroke-miterlimit:10;}
	.st8{fill:none;stroke:#01CAE0;stroke-width:2;stroke-miterlimit:10;}
	.st9{fill:#FF2664;}
	.st10{fill:#1C1C1C;}
	.st11{fill:#313131;}
	.st12{opacity:0.45;fill:#1C1C1C;}
	.st13{opacity:0.36;fill:#1C1C1C;}
	.st14{opacity:0.75;fill:#1C1C1C;}
	.st15{opacity:0.6;fill:#1C1C1C;}
</style>
<path class="st0" d="M1138.6,213.1c0,0,1.9,7.7-12.1,12.2C1126.5,225.3,1145.4,224.4,1138.6,213.1z"/>
<polygon class="st1" points="1180.5,393.6 1433.9,496.7 1544.6,406.7 1318.3,354.1 "/>
<path class="st1" d="M1011.6,454.1c0,0-46.2-1.3-6.4,14c39.8,15.3,66,20.6,81.4,40.1c15.4,19.5,30.8,23.2,39.8,23.4
	s-10.9-25.7-10.9-25.7l3.1-20.2l7.8-11.1l51.2,28.8l44.6,29.1c0,0,9.8,4.9,15.5,9.2c5.7,4.3,21.1-0.6,24.2-3.4
	c3.1-2.8,18.9,3.4,18.9,3.4s7-6-10.5-10.1c-17.5-4.2-36-48.4-36-48.4l-4.4-39.9l-15.5-8.2l11.9-16.3l-20.7-27.8L1011.6,454.1z"/>
<path class="st2" d="M1122.9,456.5L1102,471l-4.9,14.7c0,0,12.2,28.9,21.5,42l7.8,3.9c0,0-8,11.3-24.4-3.9l-30.5-45.6
	c0,0-6.7-13.2,3.5-15.8l20.7-7.2"/>
<g>
	<path class="st2" d="M1163,376.9c0,0,87.5-21.8,92.9-19.7c5.4,2.1-30.9,57.2-149.1,95.4c0,0-17.2-6.1,0,0c0,0,2.9,14.1-7.8-11.2
		c-2.5-5.8,8-14.5,12.4-19C1123.9,409.3,1141.8,384.8,1163,376.9z"/>
	<line class="st3" x1="1182.2" y1="386.5" x2="1120.8" y2="435.9"/>
	<path class="st2" d="M1073.6,394.8l-102.4,34.8c0,0-15.9,12.2,46.1,26s204.8-9.8,204.8-9.8s11.7,42.5,14.2,46.2
		c0,0,12-36.4-2.7-54.6l-1.4-12.5l-19.5,2.5l-121.2,2c-1.6,0-1.6-0.2,0,0l40.5-2.4l-42-15.7L1073.6,394.8"/>
	<polygon class="st4" points="1435.8,455.5 1422.3,450.1 1434.3,440.9 1447.5,445.8 	"/>
	<polygon class="st4" points="1509.1,396.8 1495.6,391.5 1507.5,382.3 1520.8,387.1 	"/>
	<polygon class="st2" points="1422.5,450.2 1422.1,382.3 1434.6,386.4 1435.2,455.4 	"/>
	<polygon class="st2" points="1447.5,445.8 1447.5,382.3 1434.9,386.5 1434.9,455.5 	"/>
	<polygon class="st2" points="1509.1,396.8 1509.1,342.9 1495.6,349.6 1495.6,391.5 	"/>
	<polygon class="st2" points="1509.1,396.8 1520.8,387.1 1520.8,337.2 1509.1,342.9 	"/>
	<polygon class="st2" points="1434.9,402.4 1544.6,337.2 1544.6,325.4 1434.9,379.8 	"/>
	<line class="st3" x1="1205.9" y1="340.7" x2="1205.9" y2="366.6"/>
	<line class="st3" x1="1219.3" y1="344.4" x2="1219.3" y2="363.8"/>
	<polyline class="st2" points="1434.9,379.8 1544.6,325.4 1356.9,301.2 1192.7,325.4 1434.9,379.8 1428.6,378.3 1192.7,325.4 
		1192.7,337.2 1434.9,402.4 	"/>
	<polygon class="st2" points="1368.7,320.8 1309,334.8 1387.4,351.7 1446.5,331.9 	"/>
	<polygon class="st2" points="1368.7,318.1 1309,332 1387.4,349 1446.5,329.2 	"/>
	<polygon class="st2" points="1368,324.5 1345.4,329.8 1399.5,340.1 1424.2,332.5 	"/>
	<polygon class="st2" points="1354.4,334.7 1345.5,336.8 1366.8,340.8 1375.6,338.8 	"/>
	<line class="st3" x1="1305.3" y1="332.1" x2="1305.3" y2="334.7"/>
	<line class="st3" x1="1387.2" y1="348.5" x2="1387.2" y2="351.1"/>
	<polygon class="st2" points="1449.7,331.5 1449.7,328.9 1482.1,266.3 1390.9,261.8 1368.7,318.1 	"/>
	<polygon class="st5" points="1447.4,328.2 1447.4,325.8 1476.7,269.2 1394.2,265.1 1374.1,316 	"/>
	<polygon class="st6" points="1368,326.6 1370.7,326.9 1366.9,327.7 1364.8,327.3 	"/>
	<polygon class="st6" points="1371.1,327.1 1373.7,327.3 1370,328.2 1367.8,327.8 	"/>
	<polygon class="st6" points="1374.6,327.5 1377.3,327.8 1373.5,328.6 1371.3,328.3 	"/>
	<polygon class="st6" points="1377.9,328.1 1380.7,328.3 1376.8,329.2 1374.6,328.8 	"/>
	<polygon class="st6" points="1381.2,328.5 1384,328.8 1380.1,329.6 1378,329.3 	"/>
	<polygon class="st6" points="1395.5,330.6 1398.1,331 1394.4,331.7 1392.2,331.4 	"/>
	<polygon class="st6" points="1384.5,329.1 1387.3,329.4 1383.4,330.2 1381.3,329.8 	"/>
	<polygon class="st6" points="1388.1,329.5 1390.9,329.8 1387.1,330.6 1384.9,330.3 	"/>
	<polygon class="st6" points="1391.5,330.1 1394.2,330.4 1390.4,331.2 1388.2,330.8 	"/>
	<polygon class="st6" points="1360.1,328.1 1362.9,328.3 1359,329.2 1356.9,328.8 	"/>
	<polygon class="st6" points="1363.2,328.5 1365.9,328.8 1362.1,329.6 1359.9,329.3 	"/>
	<polygon class="st6" points="1366.8,329 1369.5,329.3 1365.6,330.1 1363.5,329.7 	"/>
	<polygon class="st6" points="1370.1,329.5 1372.8,329.8 1369,330.6 1366.8,330.3 	"/>
	<polygon class="st6" points="1373.4,330 1376.1,330.3 1372.3,331.2 1370.1,330.7 	"/>
	<polygon class="st6" points="1387.6,332.1 1390.3,332.5 1386.5,333.2 1384.4,332.8 	"/>
	<polygon class="st6" points="1376.7,330.6 1379.4,330.8 1375.6,331.7 1373.4,331.3 	"/>
	<polygon class="st6" points="1380.3,331 1383,331.4 1379.2,332.2 1377,331.7 	"/>
	<polygon class="st6" points="1383.6,331.6 1386.4,331.8 1382.5,332.7 1380.3,332.3 	"/>
	<polygon class="st2" points="1399.2,331.7 1411.6,333.3 1399.2,337 1386.5,334.7 	"/>
	<polygon class="st2" points="1482.1,266.3 1483.8,268.2 1451,332.3 	"/>
	<polygon class="st2" points="1278.6,328.2 1246.8,322.3 1258.6,321.3 1293.5,324.7 	"/>
	<ellipse class="st2" cx="1272.3" cy="307.7" rx="18.7" ry="3.1"/>
	<path class="st2" d="M1252.8,308.5c0,0-0.4,17,17.4,16.9c17.8-0.1,19-11.6,20-16.9C1291.2,303.2,1252.8,308.5,1252.8,308.5z"/>
	<ellipse class="st2" cx="1271.5" cy="309.2" rx="14.8" ry="1.7"/>
	<path class="st7" d="M1262.1,302.4c0,0,4.6-2.8,0-5.8c-4.6-2.9-2.3-7.2,0-8.7"/>
	<path class="st7" d="M1270.3,301.3c0,0,5.8-3.6,0-8.3c-5.8-4.7,9-14.9,0-19.4"/>
	<path class="st7" d="M1280,301.3c0,0,5.8-7,0-9.8c-5.8-2.9,0-6.2,0-6.2"/>
	<path class="st2" d="M1253.6,310.2c0,0-8.4-1.9-7.3,2.3c1.1,4.2,4.1,9.4,15.6,10.5l-2.4-2.4c0,0-5.7-1.3-9.4-5.5
		c-3.7-4.2,3.9-2.3,3.9-2.3L1253.6,310.2z"/>
	<g>
		<path class="st2" d="M1345.9,274.9c0,0-3.6-32.5-23.9-52"/>
		<path class="st2" d="M1345.9,273.6c0,0,5-18.2-2.4-10.8c0,0,3.3-16.3-3.1-10c0,0-1.7-19.4-6.1-13.4c0,0-2.8-13.4-4.6-7.4
			c0,0-2.5-8.3-4.2-5.3c0,0-1.1-4.8-2.3-2.5c-1.5,2.8,2.3,2.5,2.3,2.5c-4.2-0.6,4.2,5.3,4.2,5.3c-6.6-1.5,4.6,7.4,4.6,7.4
			c-5.9-0.7,6.1,13.4,6.1,13.4c-9.6-5.6,3.1,10,3.1,10c-10.9-5.3,2.1,9.9,2.1,9.9"/>
		<path class="st2" d="M1347.8,276.7c0,0,9.7-31.2,33.5-46.5"/>
		<path class="st2" d="M1347.9,275.5c0,0-1.4-18.8,4.4-10.1c0,0-0.1-16.6,5-9.3c0,0,5.3-18.6,8.5-12c0,0,5.2-12.7,6-6.3
			c0,0,3.9-7.7,5.1-4.4c0,0,1.9-4.5,2.8-2c0.9,3-2.8,2-2.8,2c4.3,0.2-5.1,4.4-5.1,4.4c6.7-0.2-6,6.3-6,6.3c5.9,0.5-8.5,12-8.5,12
			c10.5-3.6-5,9.3-5,9.3c11.7-3.1-3.9,9.4-3.9,9.4"/>
		<path class="st2" d="M1347.3,281.1c0,0-2.8-32.5,13.3-55.7"/>
		<path class="st2" d="M1347,279.8c0,0-8.3-16.9,0.3-11c0,0-6.4-15.3,1.1-10.5c0,0-2.1-19.3,3.3-14.3c0,0,0.1-13.7,3.1-8.2
			c0,0,0.7-8.6,3-6.1c0,0,0.1-5,1.7-2.9c2,2.5-1.7,2.9-1.7,2.9c4-1.5-3,6.1-3,6.1c6.1-2.8-3.1,8.2-3.1,8.2
			c5.6-1.8-3.3,14.3-3.3,14.3c8.3-7.3-1.1,10.5-1.1,10.5c9.6-7.3-0.1,10.1-0.1,10.1"/>
		<path class="st2" d="M1353.8,274.8l-10,0.1c0,0-3,8.2-3.9,18.7s5,13.7,5,13.7c0,0.4,2.1,0.7,4.7,0.6c2.6,0,4.7-0.4,4.6-0.7
			C1362.7,297.3,1353.8,274.8,1353.8,274.8z"/>
	</g>
	<polygon class="st2" points="1418.2,357.2 1438,361.5 1451.6,355.9 1434.5,353 	"/>
	<polygon class="st2" points="1447.5,348.5 1462.9,342.9 1476.7,344.4 1460.1,351.1 	"/>
	<line class="st3" x1="1540.3" y1="327.5" x2="1540.3" y2="337.8"/>
	<line class="st3" x1="1542.2" y1="326.6" x2="1542.2" y2="332.1"/>
	<line class="st3" x1="1434.9" y1="386.5" x2="1502.4" y2="351.7"/>
	<line class="st3" x1="1435.2" y1="391.1" x2="1463.3" y2="376"/>
	<polyline class="st3" points="1422.3,407.9 1434.9,411.9 1447.5,404.2 	"/>
	<line class="st3" x1="1192.7" y1="331.5" x2="1300.3" y2="357.2"/>
	<ellipse class="st7" cx="1401.4" cy="273.6" rx="3.6" ry="2.4"/>
	<path class="st4" d="M1394.2,281"/>
	<polygon class="st6" points="1459.3,286.7 1394.2,281 1392.2,285.2 1456.8,290.9 	"/>
	<polygon class="st6" points="1465.6,275.4 1417.3,272.7 1416.6,275.5 1464.3,278.3 	"/>
	<line class="st7" x1="1390.3" y1="291.4" x2="1411.6" y2="293.5"/>
	<line class="st7" x1="1387.5" y1="296.4" x2="1408.9" y2="298.5"/>
	<line class="st7" x1="1385.3" y1="301.7" x2="1406.7" y2="303.8"/>
	<polygon class="st6" points="1419.5,293.2 1454.7,296.2 1447.1,310.3 1413.2,306 	"/>
	<polygon class="st2" points="927.2,480.3 955.1,471.8 968.8,487.4 939.4,497.3 	"/>
	<polygon class="st2" points="951.9,514.7 968.8,538.8 1001.8,525.2 982.8,503.5 	"/>
	<polygon class="st2" points="964.3,469 978.8,484.6 1005.2,475.2 989.9,461.1 	"/>
	<polygon class="st2" points="992.8,499.7 1012.4,520.8 1041.8,508.7 1020.8,489.4 	"/>
	<polygon class="st2" points="1074.7,546.8 1126.4,607.2 1068.7,640.1 1023.8,572.1 	"/>
	<polygon class="st8" points="1205.5,542.8 1271.6,592.6 1385.8,498.4 1323.3,470.7 	"/>
	<polygon class="st8" points="1205.5,546.7 1271.6,596.6 1385.8,502.4 1323.3,474.7 	"/>
	<polyline class="st2" points="1126.7,209 1141.8,243 1126.7,237.9 	"/>
	<path class="st2" d="M1119.4,221.4c0,0-4.6,11.9-16.2,2.8"/>
	<path class="st2" d="M1131.3,219.3c0,0,6.2,4.5,6.6-7.2"/>
	<path class="st2" d="M1108.6,207.3c0,0-9.4,3.9-13.1,18.6"/>
	<path class="st2" d="M1126.7,240c0,0,2.5,8.5,11.2,17.7c0,0-15.1,1.2-17,9"/>
	<path class="st2" d="M1132.9,258.5l1.3,7.2c0,0-6.3,9.4-7.6,19.5c0,0-17.4,3.7-31.2-22v-6.1"/>
	<path class="st2" d="M1087.3,224.4c0,0-7.1-7.5-7.1,3.1c0,10.6,6.7,20.4,7.1,21.6c0.3,1.2,2.1,7.3,8.3,2.1"/>
	<path class="st2" d="M1087.8,227.5l4.3,10.1l-2.1-30.4c0,0-0.3-11.3,10.1-13.8s23.8-7.3,26.6,13.8c0,0,6.7-15.3-5.8-23.8
		s-28.4-1.2-33,2.1c-4.6,3.4-11.6,16.6-7.6,26.6s0,9.7,0,9.7S1085.1,220.9,1087.8,227.5z"/>
	<path class="st2" d="M1080.2,195.7l-3-3.4c0,0,0.9-7.3,6.1-9.2l4.6,2.5"/>
	<path class="st2" d="M1083.2,183.1c0,0,7.1-11-6.1-15.9v4.3c0,0-11,0-10.4,5.5l-3,6.1c0,0-6.4-7.1-6.1-14.7c0,0-1.8,11.3,4.6,20.9
		c0,0-1.6,12.1,6.5,10.3c8.2-1.8,8.4-7.3,8.4-7.3S1076.3,185.9,1083.2,183.1z"/>
	<path class="st2" d="M1133.3,258.5c0,0,11,9.5-2.8,24.2l-0.4-5.2"/>
	<circle class="st6" cx="1090.2" cy="247.5" r="2.4"/>
	<polygon class="st7" points="1226.2,548.5 1234.9,555.8 1246.5,548.5 1237.7,541.8 	"/>
	<polygon class="st7" points="1241.6,538.4 1250.3,545.7 1261.9,538.4 1253,531.6 	"/>
	<polygon class="st7" points="1257.1,529 1265,535.6 1275.6,529 1267.5,522.9 	"/>
	<polygon class="st7" points="1271.6,518.8 1279.4,525.5 1290.1,518.8 1282,512.7 	"/>
	<polygon class="st7" points="1240.4,560.1 1249.3,567.1 1260.6,559.2 1251.5,552.9 	"/>
	<polygon class="st7" points="1255.3,549.3 1264.3,556.3 1275.6,548.4 1266.4,542.1 	"/>
	<polygon class="st7" points="1270.3,539.2 1278.5,545.6 1288.8,538.4 1280.4,532.7 	"/>
	<polygon class="st7" points="1287.9,508.4 1296,514.6 1306.1,507.4 1297.9,501.8 	"/>
	<polygon class="st7" points="1301.3,498.5 1309.4,504.7 1319.5,497.6 1311.2,491.9 	"/>
	<polygon class="st7" points="1314.7,489.3 1322.2,494.9 1331.4,488.4 1323.8,483.3 	"/>
	<polygon class="st7" points="1301.2,518.2 1309.6,524 1319.4,516.4 1310.8,511.2 	"/>
	<polygon class="st7" points="1314.1,507.8 1322.5,513.5 1332.4,505.9 1323.7,500.7 	"/>
	<polygon class="st7" points="1327.2,497.9 1334.8,503.2 1343.7,496.3 1335.9,491.5 	"/>
	<polygon class="st7" points="1284.3,528.4 1292.5,534.7 1302.7,527.6 1294.5,521.8 	"/>
	
		<ellipse transform="matrix(0.8121 -0.5836 0.5836 0.8121 -91.7281 851.2236)" class="st7" cx="1275.7" cy="568" rx="8.6" ry="3.7"/>
	<ellipse transform="matrix(0.8121 -0.5836 0.5836 0.8121 -39.1544 888.551)" class="st7" cx="1360" cy="505.1" rx="7" ry="2.9"/>
	<path class="st4" d="M1061.1,579.1c0,0,2.3-12.4,11-8.3c8.7,4.1,21.1,29.4,20.6,38.1C1092.8,608.9,1079.9,612.6,1061.1,579.1z"/>
	<path class="st8" d="M1075.2,579.1c0,0,13.5,1.8,11.2,17.9"/>
	<line class="st8" x1="971.2" y1="529.3" x2="964.3" y2="516.8"/>
	<line class="st8" x1="976.8" y1="525.5" x2="971.2" y2="516.8"/>
	<line class="st7" x1="984.5" y1="523" x2="980.9" y2="516.8"/>
	<line class="st8" x1="1015.7" y1="512.1" x2="1005.7" y2="501.8"/>
	<line class="st8" x1="1021.2" y1="508.6" x2="1013.4" y2="501.6"/>
	<line class="st7" x1="1026.9" y1="505.9" x2="1021.7" y2="500.9"/>
	<line class="st7" x1="996" y1="473.7" x2="988.2" y2="466.3"/>
	<line class="st8" x1="990" y1="475.6" x2="982.7" y2="468.1"/>
	<line class="st8" x1="983.6" y1="477.4" x2="976.3" y2="470"/>
	<line class="st3" x1="1130.4" y1="203.1" x2="1136.2" y2="208.6"/>
	<line class="st7" x1="942.3" y1="492.9" x2="935.5" y2="484.6"/>
	<line class="st8" x1="948" y1="489.4" x2="942.3" y2="482.1"/>
	
		<rect x="995.6" y="526.5" transform="matrix(0.9327 -0.3606 0.3606 0.9327 -121.4111 404.6937)" class="st6" width="56.4" height="2.5"/>
	
		<rect x="1001.2" y="532.6" transform="matrix(0.9327 -0.3606 0.3606 0.9327 -123.2513 407.1309)" class="st9" width="56.4" height="2.5"/>
	<path class="st3" d="M1331.4,545.6c0,0,17.4,5.4,33.4,14.4c16,9.1,115.9,92.3,171,29.5s-141.5-104.5-46-134
		c95.5-29.5-10.4-30,0-36.6c0,0-0.4-4.8,19.4-10.8s-21-13.7-10.5-22.9c10.5-9.3,19.8-47.4,0.7-45c-19.1,2.4-30-0.8-24.3-6.5
		c5.7-5.8-26.3-6.3-13.5,2.8c12.8,9.1-41.9,14.4-57.2,9.8"/>
	<path class="st3" d="M1092.8,608.9c0,0,9.7,27.1,66.8,43.6c57.1,16.5,183.5-72.5,257.8-30.3c74.4,42.2,111.4-21.6,103.4-34.2
		c-7.9-12.7,1.3-60.4,15-55.3c13.8,5.1,97.3-3.8,4.5-59.9c-92.8-56-99.8-53.7-71.6-59.9c28.2-6.2,16.1-60.3-8.3-53.5
		c-24.5,6.8-66-10.5-66-10.5"/>
	<path class="st2" d="M1222.2,445.7c0,0,3.9-0.7,2.3-11.7l-2.3-7.9"/>
	<path class="st10" d="M1225.2,431.6c0,0,9.4,33.9,11,58.3l-12.7-44.2C1223.6,445.7,1227.4,444.3,1225.2,431.6z"/>
	<path class="st10" d="M1222.1,445.7c1.5-2.4,2.8-5.8,1.5-9.8l-72,10.5l-70.3,1.3c0,0-41.5-2.7-61-5.9s-50.1-5.9-50.1-5.9
		c2.5,4.9,12.9,12,47.3,19.6C1078.3,469,1217.2,446.5,1222.1,445.7z"/>
	<path class="st11" d="M1068.4,402.4l11.9-17.3l67.3-13.1l2,14.6l10.1,15.9l-30.7,26.3C1128.9,428.6,1070.9,408.4,1068.4,402.4z"/>
	<path class="st2" d="M1153.2,281.2c0,0-67-2.2-93.1,18.1c0,0-4.8,15-2.8,21.5c0,0,4.2,5.4,19.8,3.7v-3.7l1.9,74.8
		c0,0,32.5,17.6,69.6-12.1l-6.5-70.1l-0.4-3.8c0,0,1.4,6.5,11.5,1C1163.3,305.1,1153.2,281.2,1153.2,281.2z"/>
	<path class="st2" d="M1103.8,270.7l-1.7,18.9c0,0,2.4,6.3,12.8,0v-13.7L1103.8,270.7z"/>
	<polyline class="st7" points="1114.4,313.1 1107.4,324.5 1115.5,331.7 1107.4,344.4 1115.3,353 	"/>
	<polyline class="st7" points="1119.9,316.3 1114.4,323.7 1122.9,329.6 1115.5,341 	"/>
	<path class="st2" d="M1095.5,244.6c0,0-3.9,17.4,0,24.6l1.6,5.6l1.6-1.2l3.5,5h1.7l6.1,6.9l3.9-1.4c0,0,5.8,11.6,12.8,11.1
		c0,0-0.4-5,1.8-5.6c0,0,3.8-8.9,2.8-10.5c-0.9-1.6-0.9-1.6-0.9-1.6l-3.7-2.8c0,0-3.9-2.4-4.3-6.4c0,0-3.4-5.8-1.6-6.7
		c0,0,9-5,13.4-3.5c4.4,1.6,1.3-0.2,1.3-0.2l2.4-0.3l-5.3-4.4c0,0-12.9,1.9-16.7,8.3V257l-4.6,2.5l1.1-6.2h-3.7l-4.9-2.9l-4.3-1.2
		l-7.9-19.3l-3.8-4L1095.5,244.6z"/>
	<polygon id="XMLID_1_" class="st10" points="1089.9,428.8 1056.9,424.3 1114.9,418.6 1180.5,387.9 1128.9,428.6 1122.9,427.4 	"/>
</g>
<g>
	<path class="st2" d="M1163,376.9c0,0,87.5-21.8,92.9-19.7c5.4,2.1-30.9,57.2-149.1,95.4c0,0-28.9-3.3-11.6,2.8
		c0,0,14.5,11.2,3.8-14.1c-2.5-5.8,8-14.5,12.4-19C1123.9,409.3,1141.8,384.8,1163,376.9z"/>
	<line class="st3" x1="1182.2" y1="386.5" x2="1120.8" y2="435.9"/>
	<path class="st2" d="M1073.6,394.8l-102.4,34.8c0,0-15.9,12.2,46.1,26s204.8-9.8,204.8-9.8s11.7,42.5,14.2,46.2
		c0,0,12-36.4-2.7-54.6l-1.4-12.5l-19.5,2.5l-121.2,2c-1.6,0-1.6-0.2,0,0l40.5-2.4l-42-15.7L1073.6,394.8"/>
	<polygon class="st4" points="1435.8,455.5 1422.3,450.1 1434.3,440.9 1447.5,445.8 	"/>
	<polygon class="st4" points="1509.1,396.8 1495.6,391.5 1507.5,382.3 1520.8,387.1 	"/>
	<polygon class="st2" points="1422.5,450.2 1422.1,382.3 1434.6,386.4 1435.2,455.4 	"/>
	<polygon class="st2" points="1447.5,445.8 1447.5,382.3 1434.9,386.5 1434.9,455.5 	"/>
	<polygon class="st2" points="1509.1,396.8 1509.1,342.9 1495.6,349.6 1495.6,391.5 	"/>
	<polygon class="st2" points="1509.1,396.8 1520.8,387.1 1520.8,337.2 1509.1,342.9 	"/>
	<polygon class="st2" points="1434.9,402.4 1544.6,337.2 1544.6,325.4 1434.9,379.8 	"/>
	<line class="st3" x1="1205.9" y1="340.7" x2="1205.9" y2="366.6"/>
	<line class="st3" x1="1219.3" y1="344.4" x2="1219.3" y2="363.8"/>
	<polyline class="st2" points="1434.9,379.8 1544.6,325.4 1356.9,301.2 1192.7,325.4 1434.9,379.8 1428.6,378.3 1192.7,325.4 
		1192.7,337.2 1434.9,402.4 	"/>
	<polygon class="st2" points="1368.7,320.8 1309,334.8 1387.4,351.7 1446.5,331.9 	"/>
	<polygon class="st2" points="1368.7,318.1 1309,332 1387.4,349 1446.5,329.2 	"/>
	<polygon class="st2" points="1368,324.5 1345.4,329.8 1399.5,340.1 1424.2,332.5 	"/>
	<polygon class="st2" points="1354.4,334.7 1345.5,336.8 1366.8,340.8 1375.6,338.8 	"/>
	<line class="st3" x1="1305.3" y1="332.1" x2="1305.3" y2="334.7"/>
	<line class="st3" x1="1387.2" y1="348.5" x2="1387.2" y2="351.1"/>
	<polygon class="st2" points="1449.7,331.5 1449.7,328.9 1482.1,266.3 1390.9,261.8 1368.7,318.1 	"/>
	<polygon class="st5" points="1447.4,328.2 1447.4,325.8 1476.7,269.2 1394.2,265.1 1374.1,316 	"/>
	<polygon class="st6" points="1368,326.6 1370.7,326.9 1366.9,327.7 1364.8,327.3 	"/>
	<polygon class="st6" points="1371.1,327.1 1373.7,327.3 1370,328.2 1367.8,327.8 	"/>
	<polygon class="st6" points="1374.6,327.5 1377.3,327.8 1373.5,328.6 1371.3,328.3 	"/>
	<polygon class="st6" points="1377.9,328.1 1380.7,328.3 1376.8,329.2 1374.6,328.8 	"/>
	<polygon class="st6" points="1381.2,328.5 1384,328.8 1380.1,329.6 1378,329.3 	"/>
	<polygon class="st6" points="1395.5,330.6 1398.1,331 1394.4,331.7 1392.2,331.4 	"/>
	<polygon class="st6" points="1384.5,329.1 1387.3,329.4 1383.4,330.2 1381.3,329.8 	"/>
	<polygon class="st6" points="1388.1,329.5 1390.9,329.8 1387.1,330.6 1384.9,330.3 	"/>
	<polygon class="st6" points="1391.5,330.1 1394.2,330.4 1390.4,331.2 1388.2,330.8 	"/>
	<polygon class="st6" points="1360.1,328.1 1362.9,328.3 1359,329.2 1356.9,328.8 	"/>
	<polygon class="st6" points="1363.2,328.5 1365.9,328.8 1362.1,329.6 1359.9,329.3 	"/>
	<polygon class="st6" points="1366.8,329 1369.5,329.3 1365.6,330.1 1363.5,329.7 	"/>
	<polygon class="st6" points="1370.1,329.5 1372.8,329.8 1369,330.6 1366.8,330.3 	"/>
	<polygon class="st6" points="1373.4,330 1376.1,330.3 1372.3,331.2 1370.1,330.7 	"/>
	<polygon class="st6" points="1387.6,332.1 1390.3,332.5 1386.5,333.2 1384.4,332.8 	"/>
	<polygon class="st6" points="1376.7,330.6 1379.4,330.8 1375.6,331.7 1373.4,331.3 	"/>
	<polygon class="st6" points="1380.3,331 1383,331.4 1379.2,332.2 1377,331.7 	"/>
	<polygon class="st6" points="1383.6,331.6 1386.4,331.8 1382.5,332.7 1380.3,332.3 	"/>
	<polygon class="st2" points="1399.2,331.7 1411.6,333.3 1399.2,337 1386.5,334.7 	"/>
	<polygon class="st2" points="1482.1,266.3 1483.8,268.2 1451,332.3 	"/>
	<polygon class="st2" points="1278.6,328.2 1246.8,322.3 1258.6,321.3 1293.5,324.7 	"/>
	<path class="st7" d="M1262.1,302.4c0,0,4.6-2.8,0-5.8c-4.6-2.9-2.3-7.2,0-8.7"/>
	<path class="st7" d="M1270.3,301.3c0,0,5.8-3.6,0-8.3c-5.8-4.7,9-14.9,0-19.4"/>
	<path class="st7" d="M1280,301.3c0,0,5.8-7,0-9.8c-5.8-2.9,0-6.2,0-6.2"/>
	<g>
		<path class="st2" d="M1345.9,274.9c0,0-3.6-32.5-23.9-52"/>
		<path class="st2" d="M1345.9,273.6c0,0,5-18.2-2.4-10.8c0,0,3.3-16.3-3.1-10c0,0-1.7-19.4-6.1-13.4c0,0-2.8-13.4-4.6-7.4
			c0,0-2.5-8.3-4.2-5.3c0,0-1.1-4.8-2.3-2.5c-1.5,2.8,2.3,2.5,2.3,2.5c-4.2-0.6,4.2,5.3,4.2,5.3c-6.6-1.5,4.6,7.4,4.6,7.4
			c-5.9-0.7,6.1,13.4,6.1,13.4c-9.6-5.6,3.1,10,3.1,10c-10.9-5.3,2.1,9.9,2.1,9.9"/>
		<path class="st2" d="M1347.8,276.7c0,0,9.7-31.2,33.5-46.5"/>
		<path class="st2" d="M1347.9,275.5c0,0-1.4-18.8,4.4-10.1c0,0-0.1-16.6,5-9.3c0,0,5.3-18.6,8.5-12c0,0,5.2-12.7,6-6.3
			c0,0,3.9-7.7,5.1-4.4c0,0,1.9-4.5,2.8-2c0.9,3-2.8,2-2.8,2c4.3,0.2-5.1,4.4-5.1,4.4c6.7-0.2-6,6.3-6,6.3c5.9,0.5-8.5,12-8.5,12
			c10.5-3.6-5,9.3-5,9.3c11.7-3.1-3.9,9.4-3.9,9.4"/>
		<path class="st2" d="M1347.3,281.1c0,0-2.8-32.5,13.3-55.7"/>
		<path class="st2" d="M1347,279.8c0,0-8.3-16.9,0.3-11c0,0-6.4-15.3,1.1-10.5c0,0-2.1-19.3,3.3-14.3c0,0,0.1-13.7,3.1-8.2
			c0,0,0.7-8.6,3-6.1c0,0,0.1-5,1.7-2.9c2,2.5-1.7,2.9-1.7,2.9c4-1.5-3,6.1-3,6.1c6.1-2.8-3.1,8.2-3.1,8.2
			c5.6-1.8-3.3,14.3-3.3,14.3c8.3-7.3-1.1,10.5-1.1,10.5c9.6-7.3-0.1,10.1-0.1,10.1"/>
		<path class="st2" d="M1353.8,274.8l-10,0.1c0,0-3,8.2-3.9,18.7s5,13.7,5,13.7c0,0.4,2.1,0.7,4.7,0.6c2.6,0,4.7-0.4,4.6-0.7
			C1362.7,297.3,1353.8,274.8,1353.8,274.8z"/>
	</g>
	<polygon class="st2" points="1418.2,357.2 1438,361.5 1451.6,355.9 1434.5,353 	"/>
	<polygon class="st2" points="1447.5,348.5 1462.9,342.9 1476.7,344.4 1460.1,351.1 	"/>
	<line class="st3" x1="1540.3" y1="327.5" x2="1540.3" y2="337.8"/>
	<line class="st3" x1="1542.2" y1="326.6" x2="1542.2" y2="332.1"/>
	<line class="st3" x1="1434.9" y1="386.5" x2="1502.4" y2="351.7"/>
	<line class="st3" x1="1435.2" y1="391.1" x2="1463.3" y2="376"/>
	<polyline class="st3" points="1422.3,407.9 1434.9,411.9 1447.5,404.2 	"/>
	<line class="st3" x1="1192.7" y1="331.5" x2="1300.3" y2="357.2"/>
	<ellipse class="st7" cx="1401.4" cy="273.6" rx="3.6" ry="2.4"/>
	<path class="st4" d="M1394.2,281"/>
	<polygon class="st6" points="1459.3,286.7 1394.2,281 1392.2,285.2 1456.8,290.9 	"/>
	<polygon class="st6" points="1465.6,275.4 1417.3,272.7 1416.6,275.5 1464.3,278.3 	"/>
	<line class="st7" x1="1390.3" y1="291.4" x2="1411.6" y2="293.5"/>
	<line class="st7" x1="1387.5" y1="296.4" x2="1408.9" y2="298.5"/>
	<line class="st7" x1="1385.3" y1="301.7" x2="1406.7" y2="303.8"/>
	<polygon class="st6" points="1419.5,293.2 1454.7,296.2 1447.1,310.3 1413.2,306 	"/>
	<polygon class="st2" points="927.2,480.3 955.1,471.8 968.8,487.4 939.4,497.3 	"/>
	<polygon class="st2" points="951.9,514.7 968.8,538.8 1001.8,525.2 982.8,503.5 	"/>
	<polygon class="st2" points="964.3,469 978.8,484.6 1005.2,475.2 989.9,461.1 	"/>
	<polygon class="st2" points="992.8,499.7 1012.4,520.8 1041.8,508.7 1020.8,489.4 	"/>
	<polygon class="st2" points="1074.7,546.8 1126.4,607.2 1068.7,640.1 1023.8,572.1 	"/>
	<polygon class="st8" points="1205.5,542.8 1271.6,592.6 1385.8,498.4 1323.3,470.7 	"/>
	<polygon class="st8" points="1205.5,546.7 1271.6,596.6 1385.8,502.4 1323.3,474.7 	"/>
	<polyline class="st2" points="1126.7,209 1141.8,243 1126.7,237.9 	"/>
	<path class="st2" d="M1119.4,221.4c0,0-4.6,11.9-16.2,2.8"/>
	<path class="st2" d="M1131.3,219.3c0,0,6.2,4.5,6.6-7.2"/>
	<path class="st2" d="M1108.6,207.3c0,0-9.4,3.9-13.1,18.6"/>
	<path class="st2" d="M1126.7,240c0,0,2.5,8.5,11.2,17.7c0,0-15.1,1.2-17,9"/>
	<path class="st2" d="M1087.3,224.4c0,0-7.1-7.5-7.1,3.1c0,10.6,6.7,20.4,7.1,21.6c0.3,1.2,2.1,7.3,8.3,2.1"/>
	<path class="st2" d="M1087.8,227.5l4.3,10.1l-1.6-22.9l-0.5-7.4c0,0-0.3-11.3,10.1-13.8s23.8-7.3,26.6,13.8c0,0,6.7-15.3-5.8-23.8
		s-28.4-1.2-33,2.1c-4.6,3.4-11.6,16.6-7.6,26.6s0,9.7,0,9.7S1085.1,220.9,1087.8,227.5z"/>
	<path class="st2" d="M1080.2,195.7l-3-3.4c0,0,0.9-7.3,6.1-9.2l4.6,2.5"/>
	<path class="st2" d="M1083.2,183.1c0,0,7.1-11-6.1-15.9v4.3c0,0-11,0-10.4,5.5l-3,6.1c0,0-6.4-7.1-6.1-14.7c0,0-1.8,11.3,4.6,20.9
		c0,0-1.6,12.1,6.5,10.3c8.2-1.8,8.4-7.3,8.4-7.3S1076.3,185.9,1083.2,183.1z"/>
	<path class="st2" d="M1133.3,258.5c0,0,11,9.5-2.8,24.2l-0.4-5.2"/>
	<circle class="st6" cx="1090.2" cy="247.5" r="2.4"/>
	<polygon class="st7" points="1226.2,548.5 1234.9,555.8 1246.5,548.5 1237.7,541.8 	"/>
	<polygon class="st7" points="1241.6,538.4 1250.3,545.7 1261.9,538.4 1253,531.6 	"/>
	<polygon class="st7" points="1257.1,529 1265,535.6 1275.6,529 1267.5,522.9 	"/>
	<polygon class="st7" points="1271.6,518.8 1279.4,525.5 1290.1,518.8 1282,512.7 	"/>
	<polygon class="st7" points="1240.4,560.1 1249.3,567.1 1260.6,559.2 1251.5,552.9 	"/>
	<polygon class="st7" points="1255.3,549.3 1264.3,556.3 1275.6,548.4 1266.4,542.1 	"/>
	<polygon class="st7" points="1270.3,539.2 1278.5,545.6 1288.8,538.4 1280.4,532.7 	"/>
	<polygon class="st7" points="1287.9,508.4 1296,514.6 1306.1,507.4 1297.9,501.8 	"/>
	<polygon class="st7" points="1301.3,498.5 1309.4,504.7 1319.5,497.6 1311.2,491.9 	"/>
	<polygon class="st7" points="1314.7,489.3 1322.2,494.9 1331.4,488.4 1323.8,483.3 	"/>
	<polygon class="st7" points="1301.2,518.2 1309.6,524 1319.4,516.4 1310.8,511.2 	"/>
	<polygon class="st7" points="1314.1,507.8 1322.5,513.5 1332.4,505.9 1323.7,500.7 	"/>
	<polygon class="st7" points="1327.2,497.9 1334.8,503.2 1343.7,496.3 1335.9,491.5 	"/>
	<polygon class="st7" points="1284.3,528.4 1292.5,534.7 1302.7,527.6 1294.5,521.8 	"/>
	
		<ellipse transform="matrix(0.8121 -0.5836 0.5836 0.8121 -91.7281 851.2236)" class="st7" cx="1275.7" cy="568" rx="8.6" ry="3.7"/>
	<ellipse transform="matrix(0.8121 -0.5836 0.5836 0.8121 -39.1544 888.551)" class="st7" cx="1360" cy="505.1" rx="7" ry="2.9"/>
	<path class="st4" d="M1061.1,579.1c0,0,2.3-12.4,11-8.3c8.7,4.1,21.1,29.4,20.6,38.1C1092.8,608.9,1079.9,612.6,1061.1,579.1z"/>
	<path class="st8" d="M1075.2,579.1c0,0,13.5,1.8,11.2,17.9"/>
	<line class="st8" x1="971.2" y1="529.3" x2="964.3" y2="516.8"/>
	<line class="st8" x1="976.8" y1="525.5" x2="971.2" y2="516.8"/>
	<line class="st7" x1="984.5" y1="523" x2="980.9" y2="516.8"/>
	<line class="st8" x1="1015.7" y1="512.1" x2="1005.7" y2="501.8"/>
	<line class="st8" x1="1021.2" y1="508.6" x2="1013.4" y2="501.6"/>
	<line class="st7" x1="1026.9" y1="505.9" x2="1021.7" y2="500.9"/>
	<line class="st7" x1="996" y1="473.7" x2="988.2" y2="466.3"/>
	<line class="st8" x1="990" y1="475.6" x2="982.7" y2="468.1"/>
	<line class="st8" x1="983.6" y1="477.4" x2="976.3" y2="470"/>
	<line class="st3" x1="1130.4" y1="203.1" x2="1136.2" y2="208.6"/>
	<line class="st7" x1="942.3" y1="492.9" x2="935.5" y2="484.6"/>
	<line class="st8" x1="948" y1="489.4" x2="942.3" y2="482.1"/>
	
		<rect x="995.6" y="526.5" transform="matrix(0.9327 -0.3606 0.3606 0.9327 -121.4111 404.6937)" class="st6" width="56.4" height="2.5"/>
	
		<rect x="1001.2" y="532.6" transform="matrix(0.9327 -0.3606 0.3606 0.9327 -123.2513 407.1309)" class="st9" width="56.4" height="2.5"/>
	<path class="st3" d="M1331.4,545.6c0,0,17.4,5.4,33.4,14.4c16,9.1,115.9,92.3,171,29.5s-141.5-104.5-46-134
		c95.5-29.5-10.4-30,0-36.6c0,0-0.4-4.8,19.4-10.8s-21-13.7-10.5-22.9c10.5-9.3,19.8-47.4,0.7-45c-19.1,2.4-30-0.8-24.3-6.5
		c5.7-5.8-26.3-6.3-13.5,2.8c12.8,9.1-41.9,14.4-57.2,9.8"/>
	<path class="st3" d="M1092.8,608.9c0,0,9.7,27.1,66.8,43.6c57.1,16.5,183.5-72.5,257.8-30.3c74.4,42.2,111.4-21.6,103.4-34.2
		c-7.9-12.7,1.3-60.4,15-55.3c13.8,5.1,97.3-3.8,4.5-59.9c-92.8-56-99.8-53.7-71.6-59.9c28.2-6.2,16.1-60.3-8.3-53.5
		c-24.5,6.8-66-10.5-66-10.5"/>
	<path class="st2" d="M1222.2,445.7c0,0,3.9-0.7,2.3-11.7l-2.3-7.9"/>
	<path class="st12" d="M1225.2,431.6c0,0,9.4,33.9,11,58.3l-12.7-44.2C1223.6,445.7,1227.4,444.3,1225.2,431.6z"/>
	<path class="st12" d="M1222.1,445.7c1.5-2.4,2.8-5.8,1.5-9.8l-72,10.5l-70.3,1.3c0,0-41.5-2.7-61-5.9s-50.1-5.9-50.1-5.9
		c2.5,4.9,12.9,12,47.3,19.6C1078.3,469,1217.2,446.5,1222.1,445.7z"/>
	<path class="st11" d="M1068.4,402.4l11.9-17.3l67.3-13.1l2,14.6l10.1,15.9l-30.7,26.3C1128.9,428.6,1070.9,408.4,1068.4,402.4z"/>
	<path class="st2" d="M1141.7,309.6l72.5,109.2l70.1,51.9c0,0,4.6,7.3,9.2,11.4c4.6,4.1,15.3,1.2,15.5-4.7l5.1-22l17.3,22.9
		c0,0-3.4,15.2,0,20.1s6.7-3.4,6.7-3.4v-26.8l-2.7-9l-21.4-3.8l-5.1,12.7l26.5-9l-46.7-23.3l-56.2-27.8l-77.2-120.6"/>
	<path class="st12" d="M1331.4,498.3c3.4,4.9,6.7-3.4,6.7-3.4v-2.3c0,0.1,0,0.1,0,0.3c0,2.5-2.8,0-3.9,0c-1.1,0,0-15.4,0-15.4
		s-0.2-11.9-2.7-17c-2.5-5.1-19.5-7.8-23.7-9.4c-4.1-1.6-11.5,2.5-16.3,2.5s-18.3-8-18.3-8l-52.3-29.9c0,0-1.4-15.1-10.5-17.4
		c-9.2-2.3-57.8-79.6-57.8-79.6c10.1,2.6,18.1-2.5,18.1-2.5l-4.4-3.2l-19-3.4l-2.6-4.9l-2.9,4.7l72.5,109.2l70.1,51.9
		c0,0,4.6,7.3,9.2,11.4c4.6,4.1,15.3,1.2,15.5-4.7l2.3-10.1l9.4-3.2l10.7,14.1C1331.4,478.3,1328,493.5,1331.4,498.3z"/>
	<polygon id="XMLID_2_" class="st12" points="1089.9,428.8 1056.9,424.3 1114.9,418.6 1180.5,387.9 1128.9,428.6 1122.9,427.4 	"/>
	<path class="st2" d="M1132.9,258.5l1.3,7.2c0,0-6.3,9.4-7.6,19.5c0,0-17.4,3.7-31.2-22v-6.1"/>
	<path class="st2" d="M1153.2,281.2c0,0-67-2.2-93.1,18.1c0,0-4.8,15-2.8,21.5c0,0,4.2,5.4,19.8,3.7v-3.7l1.9,74.8
		c0,0,32.5,17.6,69.6-12.1l-6.5-70.1l-0.4-3.8c0,0,4.8,13.3,9.8,13.3c10.8,0,26.2-3.7,23-9.8
		C1170.2,304.8,1153.2,281.2,1153.2,281.2z"/>
	<polyline class="st7" points="1114.4,313.1 1107.4,324.5 1115.5,331.7 1107.4,344.4 1115.3,353 	"/>
	<polyline class="st7" points="1119.9,316.3 1114.4,323.7 1122.9,329.6 1115.5,341 	"/>
	<ellipse class="st2" cx="1272.3" cy="307.7" rx="18.7" ry="3.1"/>
	<path class="st2" d="M1252.8,308.5c0,0-0.4,17,17.4,16.9c17.8-0.1,19-11.6,20-16.9C1291.2,303.2,1252.8,308.5,1252.8,308.5z"/>
	<ellipse class="st2" cx="1271.5" cy="309.2" rx="14.8" ry="1.7"/>
	<path class="st2" d="M1253.6,310.2c0,0-8.4-1.9-7.3,2.3c1.1,4.2,4.1,9.4,15.6,10.5l-2.4-2.4c0,0-5.7-1.3-9.4-5.5
		c-3.7-4.2,3.9-2.3,3.9-2.3L1253.6,310.2z"/>
	<line class="st2" x1="1073.6" y1="394.8" x2="1078.8" y2="387.3"/>
</g>
<path class="st2" d="M1088,344.4"/>
<path class="st13" d="M1088,411.2c0,0-35.1,3.9-37.4,10.3s23.8,0.2,33.4,8.7l13.1,19.3l-1.2,9.6c0,0,34.9-1.6,42.2-3.2
	c7.3-1.6-7.8-17.1-7.8-17.1l-31.6-18.7L1088,411.2z"/>
<path class="st2" d="M1057.3,320.7l41.4,110.9l131.2,79.6l16.2,20.5c0,0,4.9-1.5,6.9,0c1.9,1.5,8.9-2.3,8.9-2.3l8.4-4.3l-4.9-13
	l8.7-7.3l5.4,8l-2.1,26c0,0-1.6,0,3.3,3.1c4.9,3.1,7-37.1,7-37.1l-15.6-20.2l-10.4,13.8l-22.2-20.9L1122.9,421l-45.8-96.6
	C1077.1,324.4,1066.4,325.4,1057.3,320.7z"/>
<path class="st2" d="M1097.1,485.8c0,0,0.2-16.2-11.7-23"/>
<path class="st0" d="M1118,526.8c-9.3-13.5-20.9-41-20.9-41l4.9-14.7l20.8-14.6l-27,2.7l-20.7,7.2c-10.2,2.6-3.5,15.8-3.5,15.8
	l3.6,5.4c0,0-2.9-13.3,1.8-11.9c4.7,1.5,1.3-11.4,14.3,1.8c1.3,1.3,7.5,19.9,7.5,19.9S1114.9,526.3,1118,526.8z"/>
<path class="st0" d="M1090.2,287.4c0,0-8.5,4.1,0.9,7.7s22.9,7.2,22.9,7.2l10.2,6.8l2.5,12.1l7.6-20.1l8.9-15.8l-1.3-4.3
	C1141.8,281.1,1107.4,282.8,1090.2,287.4z"/>
<path class="st10" d="M1103.8,270.7l-1.7,18.9c0,0,2.4,6.3,12.8,0v-13.7L1103.8,270.7z"/>
<path class="st2" d="M1095.5,244.6c0,0-3.9,17.4,0,24.6l1.6,5.6l1.6-1.2l3.5,5h1.7l6.1,6.9l3.9-1.4c0,0,5.8,11.6,12.8,11.1
	c0,0-0.4-5,1.8-5.6c0,0,3.8-8.9,2.8-10.5c-0.9-1.6-0.9-1.6-0.9-1.6l-3.7-2.8c0,0-3.9-2.4-4.3-6.4c0,0-3.4-5.8-1.6-6.7
	c0,0,9-5,13.4-3.5c4.4,1.6,1.3-0.2,1.3-0.2l2.4-0.3l-5.3-4.4c0,0-12.9,1.9-16.7,8.3V257l-4.6,2.5l1.1-6.2h-3.7l-4.9-2.9l-4.3-1.2
	l-7.9-19.3l-3.8-4L1095.5,244.6z"/>
<path class="st3" d="M1098.7,253.4c0,0-3.4,5.5,0,15.3"/>
<path class="st3" d="M1102.1,259.1c0,0-2,6.2,3.6,14.9"/>
<path class="st3" d="M1109.8,268.7c0,0-2,6.2,3.6,14.9"/>
<path class="st3" d="M1125.4,295.1c0,0-11.1-21.7-9.8-25.6"/>
<line class="st3" x1="1090.2" y1="221.8" x2="1082.5" y2="216.6"/>
<line class="st2" x1="1090.4" y1="212.1" x2="1080.3" y2="212.1"/>
<line class="st2" x1="1090" y1="207.3" x2="1079.2" y2="207.3"/>
<line class="st2" x1="1095.5" y1="195.7" x2="1080.7" y2="197"/>
<line class="st2" x1="1103.7" y1="192.6" x2="1086.4" y2="184.8"/>
<line class="st2" x1="1109.5" y1="191.5" x2="1097.2" y2="181.1"/>
<line class="st2" x1="1117.7" y1="191.5" x2="1116.6" y2="181.1"/>
<line class="st2" x1="1125.9" y1="203.1" x2="1126.7" y2="189.9"/>
<path class="st2" d="M1062.5,195.7c9.5,1.5,14.7-7,14.7-7s-12.6,7.6-15,0.8"/>
<path class="st2" d="M1079.1,186c0,0-4.3-9.3-11.7-11.4"/>
<path class="st2" d="M1083.2,183.1c0,0,1.2-7.9-6.1-11.6"/>
<path class="st1" d="M1334,500.7c0,0-23.2,6.3-32.7-2.2c-9.5-8.5-66.3-21.1-66.3-21.1l-29.4-31.7c0,0-4.4-21.3-12.7-19.6
	c-8.3,1.7-15.2-7.2-15.2-7.2s8-18.6-6.4-24.1l-31.1-11.2l1.7-60.6l6.9,60.5c0,0,30.2-2.8,31.9,0.1s28.4,3.9,25.4,23.9l24,8.1
	l6.3,47.2l66.5,10.1L1334,500.7z"/>
<path class="st14" d="M1061.1,579.1c0,0-29.3,24.1,28.6,29.9"/>
<path class="st0" d="M1127.2,241.4l-10-3.8c0,0,6.2,10.9-0.6,9.9l-12.9-4.6l-11.1-15.3l7.1,21.5c0,0,6.1,0.8,9.2,4.1
	c3.1,3.3,3.7,0,3.7,0l-1.1,6.2l4.6-2.5v3.5c0,0,8.8-8.4,16.7-7.3L1127.2,241.4z"/>
<path class="st0" d="M1119.8,224.5c0,0-3.5,7.1-17.1,1.6C1102.7,226.1,1117.8,237.5,1119.8,224.5z"/>
<path class="st0" d="M1092.6,199.9l-13.3,3.1l2.8,16.2l-1.8,2.6c0,0,6.1,3.7,9.7,10.8c3.6,7.1,9.6,16.4,9.6,16.4l-9.3-21.5
	L1092.6,199.9z"/>
<path class="st12" d="M1339.9,306.2c0,0-9,3.6,3.5,7c12.5,3.4,10.8-6,10.8-6"/>
<path class="st12" d="M1259.4,320.6c0,0-19.1,3-9.4,7.5c9.6,4.5,36.9,2.1,32.2-3.3"/>
<polygon class="st12" points="1192.7,325.4 1192.7,337.2 1434.7,400.3 1434.7,383.6 "/>
<path class="st2" d="M1056.8,318.8c0.6,14.2,9.3,25.6,9.3,25.6c13.1,1.5,18.7-6.1,18.7-6.1l-5.6-19.5"/>
<path class="st15" d="M1061.2,301.2c0,0,11,18.6,14.4,19.5c3.4,1,9.3,20.1,9.3,20.1l-27.6-20.1
	C1057.3,320.7,1058.4,303.3,1061.2,301.2z"/>
<path class="st0" d="M1280.4,532.7l0.4-24.1l-8.6-13.7l-12.8,14.9l1.2,7.8l-6.7,3.2l-3.5-3.2c-9.6,4.8-10.1-2.9-10.1-2.9
	s-10.5-9.6-16.3-13.8c-9.1-14.5-115.4-72.5-118.9-77s-27.3-72.7-27.3-72.7l7-10.3v0l-7.8-16.4c0,0-10.7,1-19.8-3.7l41.4,110.9
	l131.2,79.6l16.2,20.5c0,0,4.9-1.5,6.9,0s8.9-2.3,8.9-2.3l8.4-4.3l-4.9-13l8.7-7.3l5.4,8l-2.1,26c0,0-1.6,0,3.3,3.1
	c1.2,0.8,2.3-1.2,3.2-4.5L1280.4,532.7z"/>
</svg>
