<?xml version="1.0" encoding="utf-8"?>
<!-- Generator: Adobe Illustrator 21.0.2, SVG Export Plug-In . SVG Version: 6.00 Build 0)  -->
<svg version="1.1" id="Layer_1" xmlns="http://www.w3.org/2000/svg" xmlns:xlink="http://www.w3.org/1999/xlink" x="0px" y="0px"
	 viewBox="0 0 43 80" style="enable-background:new 0 0 43 80;" xml:space="preserve">
<style type="text/css">
	.st0{fill:#1E1E1E;}
</style>
<g id="Home_page_high_V1.0_6_1_">
	<g id="Grupo_6_1_" transform="translate(-143.774 -43.582)">
		<path id="Unión_2_1_" class="st0" d="M184,50.1l-15.6,15.6L183.6,81c1.3,0.9,1.6,2.7,0.8,4c-0.2,0.3-0.5,0.6-0.8,0.8l-17.2,17.2
			c-1.1,1.1-2.9,1.1-4,0c-1.1-1.1-1.1-2.9,0-4L178,83.3l-15.2-15.2c-1.3-0.9-1.6-2.7-0.8-4c0.2-0.3,0.5-0.6,0.8-0.8l17.2-17.2
			c1.1-1.1,2.9-1.1,4,0C185.1,47.3,185.1,49,184,50.1C184,50.1,184,50.1,184,50.1z"/>
		<path id="Unión_3_1_" class="st0" d="M145.8,101.3c0-0.9,0.5-1.8,1.2-2.4l15.4-15.4L147,68.1c-1.3-0.9-1.6-2.7-0.8-4
			c0.2-0.3,0.5-0.6,0.8-0.8l17.1-17.1c1-1,2.5-1.2,3.7-0.4c1.5,1,1.6,3.1,0.4,4.3l-15.6,15.6l15.6,15.6c1.1,1.2,1.1,3,0,4.3
			l-15.6,15.6l15.6,15.6c1.1,1.1,1.1,2.9,0,4c-1.1,1.1-2.9,1.1-4,0L147,103.6C146.2,103.1,145.8,102.2,145.8,101.3L145.8,101.3z"/>
	</g>
</g>
</svg>
