<?xml version="1.0" encoding="utf-8"?>
<!-- Generator: Adobe Illustrator 21.0.2, SVG Export Plug-In . SVG Version: 6.00 Build 0)  -->
<svg version="1.1" id="Layer_1" xmlns="http://www.w3.org/2000/svg" xmlns:xlink="http://www.w3.org/1999/xlink" x="0px" y="0px"
	 viewBox="0 0 1799 672" style="enable-background:new 0 0 1799 672;" xml:space="preserve">
<style type="text/css">
	.st0{fill:none;}
</style>
<g>
	<path class="st0" d="M1339.8,280.9V313h27.6c6.4,0,11.2-1.3,14.3-3.9c3.1-2.6,4.7-6.5,4.7-11.9c0-5.6-1.6-9.7-4.7-12.4
		c-3.1-2.7-7.9-4-14.3-4H1339.8z"/>
	<path class="st0" d="M1383.5,94c3.4-3.1,5.1-8,5.1-14.6c0-6-1.8-10.7-5.3-14.1c-3.5-3.4-8.6-5.1-15.2-5.1h-28.2v38.5h28.2
		C1374.9,98.6,1380,97.1,1383.5,94z"/>
	<path class="st0" d="M1372.2,362.4h-32.4v32.1h32.4c6.4,0,11.2-1.2,14.3-3.7c3.1-2.5,4.7-6.5,4.7-12
		C1391.2,367.9,1384.9,362.4,1372.2,362.4z"/>
	<polygon class="st0" points="1591.5,76.5 1570.9,139.7 1612,139.7 	"/>
	<polygon class="st0" points="1381.1,224.4 1339.8,146.1 1339.8,224.4 	"/>
	<polygon class="st0" points="1575.4,363.7 1616.5,363.7 1596,300.5 	"/>
	<path class="st0" d="M1481.1,504.5c-14.3,0-25.4,4.5-33.1,13.6c-7.7,9.1-11.6,21.5-11.6,37.1c0,15.4,3.9,27.7,11.6,36.8
		c7.7,9.1,18.7,13.6,33.1,13.6c14.1,0,25-4.5,32.7-13.6c7.7-9.1,11.6-21.3,11.6-36.8c0-15.6-3.9-28-11.6-37.1
		C1506.1,509,1495.2,504.5,1481.1,504.5z"/>
	<polygon points="1189,227.6 1189,56.9 1249.3,56.9 1249.3,0.4 1058,0.4 1058,56.9 1117.7,56.9 1117.7,227.6 	"/>
	<path d="M1553.6,193.3h75.7l11.2,34.3h75.1L1632.9,0.4h-82.2l-83.1,227.2h74.8L1553.6,193.3z M1591.5,76.5l20.5,63.2h-41.1
		L1591.5,76.5z"/>
	<path d="M1387.7,451.6c24.6,0,43.5-5.4,56.7-16.2c13.2-10.8,19.7-26.2,19.7-46.1c0-13-3.8-24.6-11.4-34.5
		c-7.6-10-18.2-16.5-31.9-19.7c11.6-3,20.8-9,27.8-18.1c7-9.1,10.4-20.3,10.4-33.5c0-19.3-6.6-33.9-19.9-44
		c-7.1-5.4-15.6-9.3-25.6-11.8h47.7l-49.4-87c15.8-5.1,28-13.6,36.4-25.4c8.5-11.8,12.7-25.2,12.7-40.4c0-14.1-3.3-26.8-9.8-38
		c-6.5-11.2-16.3-20.1-29.4-26.6c-13.1-6.5-28.8-9.8-47.2-9.8h-86.9h-19h-0.1v592.4c-0.4,5-1.5,8.6-3.4,10.9
		c-2.4,2.8-5.7,4.2-10,4.2c-5.1,0-9.2-1.9-12.2-5.6c-3-3.7-4.5-10.2-4.5-19.4h-70.3c0,29.1,8.1,51.2,24.4,66.4
		c16.3,15.2,38.2,22.8,65.8,22.8c25.7,0,45.6-7,59.9-21c14.2-14,21.3-34.6,21.3-61.8V451.6H1387.7z M1386.5,390.8
		c-3.1,2.5-7.9,3.7-14.3,3.7h-32.4v-32.1h32.4c12.6,0,18.9,5.5,18.9,16.4C1391.2,384.3,1389.6,388.4,1386.5,390.8z M1386.4,297.3
		c0,5.4-1.6,9.3-4.7,11.9c-3.1,2.6-7.9,3.9-14.3,3.9h-27.6v-32.1h27.6c6.4,0,11.2,1.3,14.3,4
		C1384.8,287.6,1386.4,291.7,1386.4,297.3z M1339.8,60.1h28.2c6.6,0,11.7,1.7,15.2,5.1c3.5,3.4,5.3,8.1,5.3,14.1
		c0,6.6-1.7,11.5-5.1,14.6c-3.4,3.1-8.6,4.7-15.4,4.7h-28.2V60.1z M1381.1,224.4h-41.3v-78.3L1381.1,224.4z"/>
	<path d="M1788.1,565.3c-7.2-9.7-15.5-17.1-25-22.1c-9.5-5-21.6-10.1-36.1-15.2c-11.6-4.1-20.1-7.6-25.5-10.8
		c-5.5-3.1-8.2-7.1-8.2-12c0-3.6,1-6.4,2.9-8.2c1.9-1.8,4.4-2.7,7.4-2.7c8.8,0,13.7,6,14.8,18h76.7c-1.5-23.8-10.3-41.9-26.3-54.6
		c-13.7-10.7-31.3-16.9-53-18.5l-78.2-214.7h-82.2l-78.4,214.3c-19.8,0.6-38,5.6-54.6,14.9c-17.9,10-32,23.8-42.5,41.6
		c-10.5,17.8-15.7,37.8-15.7,60c0,22.3,5.2,42.3,15.7,60c10.5,17.8,24.7,31.7,42.5,41.7c17.9,10.1,37.5,15.1,58.9,15.1
		c21.2,0,40.7-5,58.6-15.1c17.9-10.1,32-24,42.4-41.7c10.4-17.8,15.6-37.8,15.6-60c0-22.3-5.2-42.3-15.6-60
		c-10.4-17.8-24.4-31.6-42.2-41.6c-1.2-0.7-2.4-1.3-3.6-1.9h10.7l11.2-34.3h75.8l11.2,34.3h4.1c-8.4,4.9-15.4,11.1-20.9,18.6
		c-7.6,10.4-11.4,22.9-11.4,37.7c0,15.4,3.5,27.9,10.6,37.6c7.1,9.6,15.4,16.9,24.9,21.8c9.5,4.9,21.5,9.7,35.8,14.4
		c12.2,4.1,21,7.7,26.5,10.8c5.5,3.1,8.2,7.3,8.2,12.7c0,3.6-1.1,6.4-3.4,8.3c-2.2,1.9-5.2,2.9-8.8,2.9c-10.5,0-16.3-6.5-17.3-19.6
		h-75.7c1.5,24.6,11.1,43.3,28.7,56c17.7,12.7,40.1,19.1,67.2,19.1c17.8,0,33.1-3,45.9-9.1c12.8-6.1,22.6-14.4,29.4-24.9
		c6.7-10.5,10.1-22.3,10.1-35.3C1798.8,587.5,1795.2,575,1788.1,565.3z M1513.8,591.9c-7.7,9.1-18.6,13.6-32.7,13.6
		c-14.3,0-25.4-4.5-33.1-13.6c-7.7-9.1-11.6-21.3-11.6-36.8c0-15.6,3.9-28,11.6-37.1c7.7-9.1,18.7-13.6,33.1-13.6
		c14.1,0,25,4.5,32.7,13.6c7.7,9.1,11.6,21.5,11.6,37.1C1525.4,570.6,1521.5,582.8,1513.8,591.9z M1575.4,363.7l20.5-63.2l20.5,63.2
		H1575.4z"/>
</g>
<rect y="307" width="173" height="51"/>
</svg>
