<?xml version="1.0" encoding="utf-8"?>
<!-- Generator: Adobe Illustrator 21.0.2, SVG Export Plug-In . SVG Version: 6.00 Build 0)  -->
<svg version="1.1" id="Layer_1" xmlns="http://www.w3.org/2000/svg" xmlns:xlink="http://www.w3.org/1999/xlink" x="0px" y="0px"
	 viewBox="0 0 1799 672" style="enable-background:new 0 0 1799 672;" xml:space="preserve">
<rect y="307" width="173" height="51"/>
<g>
	<path d="M1191.5,50.5v132c0,24.1,4,41.3,12.1,51.4c8,10.1,22.1,15.2,42,15.2c21.1,0,35.2-5.6,42.5-16.9c7.2-11.2,10.8-29.9,10.8-56
		V50.5L1266.4,38V3.5l128.2-2.1V38l-31.2,12.5v125.7c0,41.6-9.2,72.6-27.5,93c-18.3,20.4-49.1,30.6-92.4,30.6
		c-41.1,0-70.8-9.4-89.1-28.3c-18.3-18.9-27.5-48.6-27.5-89.1v-132L1095.7,38V3.5L1224,1.4V38L1191.5,50.5z"/>
	<path d="M1535.8,258.7v36.2h-123.6v-36.2l25.8-8.7l84.1-102.4l-77.4-101.6l-24.1-7.9V3.5l124.9-2.1V38l-20.8,7.1l42.9,57.9
		l40.8-56.2l-22.5-8.7V3.5l119.9-2.1V38l-27.5,8.3l-76.6,97.8l81.2,106.2l29.1,8.3v36.2h-129.1v-36.2l19.2-6.7l-45.8-62.4
		l-46.6,60.8L1535.8,258.7z"/>
	<path d="M1191.5,423.3v132c0,24.1,4,41.3,12.1,51.4c8,10.1,22.1,15.2,42,15.2c21.1,0,35.2-5.6,42.5-16.9
		c7.2-11.2,10.8-29.9,10.8-56V423.3l-32.5-12.5v-34.6l128.2-2.1v36.6l-31.2,12.5V549c0,41.6-9.2,72.6-27.5,93
		c-18.3,20.4-49.1,30.6-92.4,30.6c-41.1,0-70.8-9.4-89.1-28.3c-18.3-18.9-27.5-48.6-27.5-89.1v-132l-31.2-12.5v-34.6l128.2-2.1v36.6
		L1191.5,423.3z"/>
	<path d="M1549.5,631.5v36.2h-127v-36.2l31.2-10.4V423.3l-31.2-12.5v-34.6l127-2.1v36.6l-31.2,12.5v197.7L1549.5,631.5z"/>
</g>
</svg>
